<svg width="272" height="272" viewBox="0 0 272 272" fill="none" xmlns="http://www.w3.org/2000/svg">
<path d="M253.812 27.25H163.188V18.1875C163.188 13.3805 161.278 8.77029 157.879 5.37119C154.48 1.97209 149.87 0.0625 145.062 0.0625H18.1875C13.3805 0.0625 8.77029 1.97209 5.37119 5.37119C1.97209 8.77029 0.0625 13.3805 0.0625 18.1875V117.875C0.0625 167.719 47.8083 167.719 63.5 167.719C64.7018 167.719 65.8543 167.241 66.7041 166.392C67.5539 165.542 68.0312 164.389 68.0312 163.188C68.0312 161.986 67.5539 160.833 66.7041 159.983C65.8543 159.134 64.7018 158.656 63.5 158.656C60.9665 158.657 58.4611 158.126 56.1452 157.099C53.8294 156.072 51.7547 154.57 50.055 152.692C48.3552 150.813 47.0682 148.599 46.2769 146.192C45.4857 143.785 45.2077 141.24 45.4611 138.719C46.0719 134.135 48.3506 129.937 51.8615 126.928C55.3724 123.919 59.8692 122.309 64.4923 122.406H126.938V131.469H86.1562C84.9545 131.469 83.8019 131.946 82.9522 132.796C82.1024 133.646 81.625 134.798 81.625 136C81.6291 146.336 85.5751 156.281 92.6586 163.808C91.3671 168.012 90.7029 172.384 90.6875 176.781C90.7033 185.589 93.2825 194.201 98.1103 201.567C102.938 208.934 109.806 214.736 117.875 218.265C117.775 220.984 116.665 226.625 104.281 226.625C98.2747 226.632 92.5161 229.021 88.2688 233.269C84.0215 237.516 81.6322 243.275 81.625 249.281V271.938H90.6875V249.281C90.6964 245.841 92.0116 242.533 94.3671 240.026C96.7225 237.52 99.9423 236.001 103.375 235.778L125.379 246.775C127.306 247.733 129.355 248.423 131.469 248.828V271.938H140.531V248.828C142.64 248.428 144.686 247.746 146.612 246.798L168.625 235.778C172.058 236.001 175.277 237.52 177.633 240.026C179.988 242.533 181.304 245.841 181.312 249.281V271.938H190.375V249.281C190.368 243.275 187.979 237.516 183.731 233.269C179.484 229.021 173.725 226.632 167.719 226.625C155.348 226.625 154.234 220.975 154.125 218.269C162.443 214.668 169.485 208.647 174.334 200.989C179.183 193.331 181.615 184.39 181.312 175.331V174.321C181.312 173.641 181.285 172.961 181.235 172.291V172.25C181.229 165.957 179.76 159.752 176.944 154.125H207.544C212.167 154.028 216.664 155.637 220.175 158.647C223.686 161.656 225.964 165.854 226.575 170.438C226.829 172.961 226.55 175.51 225.757 177.92C224.963 180.329 223.673 182.545 221.969 184.424C220.265 186.303 218.186 187.804 215.866 188.829C213.546 189.854 211.037 190.381 208.5 190.375C207.298 190.375 206.146 190.852 205.296 191.702C204.446 192.552 203.969 193.704 203.969 194.906C203.969 196.108 204.446 197.261 205.296 198.11C206.146 198.96 207.298 199.438 208.5 199.438C224.192 199.438 271.938 199.438 271.938 149.594V45.375C271.938 40.568 270.028 35.9578 266.629 32.5587C263.23 29.1596 258.62 27.25 253.812 27.25ZM36.4394 137.876C35.8022 144.628 37.6947 151.376 41.75 156.812C19.343 152.39 9.125 139.892 9.125 117.875V18.1875C9.125 15.784 10.0798 13.4789 11.7793 11.7793C13.4789 10.0798 15.784 9.125 18.1875 9.125H145.062C147.466 9.125 149.771 10.0798 151.471 11.7793C153.17 13.4789 154.125 15.784 154.125 18.1875V104.281C154.125 106.685 153.17 108.99 151.471 110.689C149.771 112.389 147.466 113.344 145.062 113.344H64.4742C57.6013 113.266 50.9411 115.726 45.7685 120.252C40.5959 124.779 37.2743 131.053 36.4394 137.876ZM140.531 140.531C148.143 140.553 155.493 143.312 161.239 148.303C166.986 153.294 170.746 160.185 171.833 167.719H122.406C114.781 167.709 107.414 164.958 101.65 159.966C95.8855 154.975 92.1087 148.077 91.0092 140.531H140.531ZM148.085 210.92C147.201 211.232 146.436 211.81 145.894 212.576C145.353 213.341 145.062 214.255 145.062 215.193V217.562C144.926 220.723 145.716 223.855 147.336 226.573C148.955 229.291 151.334 231.476 154.179 232.86L142.561 238.669C140.519 239.668 138.276 240.188 136.002 240.188C133.729 240.188 131.485 239.668 129.443 238.669L117.821 232.86C120.666 231.476 123.045 229.291 124.664 226.573C126.284 223.855 127.074 220.723 126.938 217.562V215.193C126.938 214.255 126.647 213.341 126.106 212.576C125.564 211.81 124.799 211.232 123.915 210.92C116.858 208.416 110.748 203.792 106.422 197.68C102.096 191.569 99.7657 184.269 99.75 176.781C99.752 174.593 99.9583 172.41 100.366 170.261C106.93 174.516 114.584 176.78 122.406 176.781H172.178C172.199 184.268 169.891 191.575 165.575 197.692C161.258 203.809 155.146 208.431 148.085 210.92ZM262.875 149.594C262.875 171.611 252.657 184.108 230.273 188.531C234.32 183.092 236.204 176.344 235.561 169.595C234.726 162.772 231.404 156.497 226.232 151.971C221.059 147.445 214.399 144.985 207.526 145.062H170.773C166.976 140.792 162.318 137.374 157.106 135.031C151.894 132.688 146.246 131.474 140.531 131.469H136V122.406H145.062C149.87 122.406 154.48 120.497 157.879 117.098C161.278 113.698 163.188 109.088 163.188 104.281V36.3125H253.812C256.216 36.3125 258.521 37.2673 260.221 38.9668C261.92 40.6664 262.875 42.9715 262.875 45.375V149.594Z" fill="#412A7C"/>
</svg>
