<svg width="115" height="65" viewBox="0 0 115 65" fill="none" xmlns="http://www.w3.org/2000/svg">
<g clip-path="url(#clip0)">
<path d="M60.1888 33.3605C60.1888 48.6524 47.792 61.0489 32.5 61.0489C17.208 61.0489 4.81152 48.6524 4.81152 33.3605C4.81152 18.0685 17.208 5.67173 32.5 5.67173C47.792 5.67173 60.1888 18.0685 60.1888 33.3605Z" fill="white"/>
<path d="M45.2348 49.5568H19.7649C14.5719 45.6702 11.205 39.4706 11.205 32.5C11.205 20.758 20.758 11.205 32.5 11.205C44.242 11.205 53.7945 20.758 53.7945 32.5C53.7945 39.4706 50.4281 45.6702 45.2348 49.5568ZM32.5 -1.49012e-06C14.5796 -1.49012e-06 0 14.5796 0 32.5C0 50.4204 14.5796 65 32.5 65C50.4211 65 65 50.4204 65 32.5C65 14.5796 50.4211 -1.49012e-06 32.5 -1.49012e-06Z" fill="#50B7EB"/>
<path d="M22.9633 32.9507C22.9633 32.6058 23.245 32.3554 23.5586 32.3554H27.0044C27.318 32.3554 27.5995 32.6058 27.5995 32.9507V36.6746C27.5995 36.988 27.318 37.2694 27.0044 37.2694H23.5586C23.245 37.2694 22.9633 36.988 22.9633 36.6746V32.9507ZM22.775 27.184C22.775 25.8054 23.8718 24.6776 25.2501 24.6776C26.6285 24.6776 27.7566 25.8054 27.7566 27.184C27.7566 28.5623 26.6285 29.6588 25.2501 29.6588C23.8718 29.6588 22.775 28.5623 22.775 27.184Z" fill="#50B7EB"/>
<path d="M30.1975 25.3744C30.1975 25.0298 30.4791 24.7794 30.7925 24.7794H34.2384C34.5518 24.7794 34.8336 25.0298 34.8336 25.3744V36.6746C34.8336 36.988 34.5518 37.2694 34.2384 37.2694H30.7925C30.4791 37.2694 30.1975 36.988 30.1975 36.6746V25.3744ZM30.0092 19.6074C30.0092 18.2293 31.1059 17.1013 32.4843 17.1013C33.8627 17.1013 34.9902 18.2293 34.9902 19.6074C34.9902 20.9863 33.8627 22.0821 32.4843 22.0821C31.1059 22.0821 30.0092 20.9863 30.0092 19.6074Z" fill="#50B7EB"/>
<path d="M37.4315 28.6155C37.4315 28.271 37.7139 28.0204 38.027 28.0204H41.4724C41.7862 28.0204 42.0679 28.271 42.0679 28.6155V36.6746C42.0679 36.988 41.7862 37.2694 41.4724 37.2694H38.027C37.7139 37.2694 37.4315 36.988 37.4315 36.6746V28.6155ZM37.2434 22.849C37.2434 21.4701 38.3397 20.3424 39.7185 20.3424C41.0969 20.3424 42.2247 21.4701 42.2247 22.849C42.2247 24.2271 41.0969 25.3236 39.7185 25.3236C38.3397 25.3236 37.2434 24.2271 37.2434 22.849Z" fill="#50B7EB"/>
<path d="M12.0993 47.3552L9.54704 49.0725L8.37036 47.3237L8.76439 47.0585L9.63991 48.3598L10.2982 47.9166L9.44051 46.6423L9.83455 46.3771L10.6922 47.6514L11.7981 46.9076L12.0993 47.3552" fill="white"/>
<path d="M7.80525 45.1801L9.36368 45.0007L8.85656 44.0159L7.80525 45.1801ZM9.63548 43.1892L9.20967 43.6625L9.856 44.9186L10.4888 44.8467L10.7698 45.3928L7.47935 45.7262L7.1709 45.1272L9.35454 42.6433L9.63548 43.1892" fill="white"/>
<path d="M8.26939 39.5835L6.01883 40.3448L8.5708 40.4753L8.64489 40.6932L6.6973 42.3506L8.94792 41.5889L9.12095 42.1003L6.20594 43.0865L5.9624 42.3659L7.69462 40.893L5.42567 40.7794L5.18164 40.0577L8.0966 39.0722L8.26939 39.5835" fill="white"/>
<path d="M7.91811 38.1518L4.90953 38.8058L4.7948 38.2783L7.80334 37.624L7.91811 38.1518" fill="white"/>
<path d="M7.6194 36.7177L4.56733 37.1237L4.49609 36.5884L7.07701 36.2451L6.89784 34.8996L7.36921 34.8369L7.6194 36.7177" fill="white"/>
<path d="M7.31368 33.7702L6.03637 33.8201L4.28488 35.0854L4.26043 34.4673L5.54148 33.5716L4.19437 32.7793L4.16992 32.1615L6.01521 33.2806L7.2925 33.2307L7.31368 33.7702" fill="white"/>
<path d="M7.4328 29.5643L4.39392 29.0878L4.72047 27.0057L5.18973 27.0793L4.94664 28.6282L5.73045 28.7513L5.96814 27.234L6.43764 27.3076L6.19973 28.8245L7.04702 28.9578L7.2901 27.4082L7.75913 27.4818L7.4328 29.5643" fill="white"/>
<path d="M7.06535 24.1225C6.49829 23.9565 5.94249 24.1784 5.75042 24.8339L5.57903 25.4188L7.62158 26.0171L7.79179 25.4367C7.97986 24.7947 7.6279 24.2875 7.06535 24.1225V24.1225ZM7.926 26.6693L4.97107 25.8037L5.29292 24.705C5.56422 23.779 6.35697 23.338 7.22093 23.591C8.09361 23.8463 8.51894 24.6444 8.24925 25.566L7.926 26.6693Z" fill="white"/>
<path d="M7.87027 22.7904L6.17822 22.0202L6.40584 21.5209L8.08513 22.2852C8.53014 22.4874 8.93266 22.3717 9.14493 21.9055C9.35678 21.4398 9.1802 21.0599 8.73495 20.8575L7.05518 20.0929L7.28274 19.5933L8.97473 20.3633C9.66782 20.679 9.95201 21.2895 9.58151 22.1042C9.21264 22.9148 8.5633 23.1057 7.87027 22.7904Z" fill="white"/>
<path d="M9.15257 19.3585C8.3497 18.85 8.18588 17.9105 8.67229 17.1427C9.00307 16.6205 9.47938 16.4635 9.91217 16.4698L9.87034 16.984C9.5732 16.9706 9.25272 17.1227 9.07734 17.3994C8.7515 17.9138 8.89937 18.543 9.4488 18.8911C9.99047 19.2339 10.6299 19.1041 10.956 18.5895C11.1312 18.313 11.1281 17.9557 10.9929 17.6954L11.4344 17.429C11.6202 17.8254 11.6921 18.3243 11.3613 18.8465C10.8749 19.6143 9.95147 19.8647 9.15257 19.3585Z" fill="white"/>
<path d="M11.2315 14.6694L11.9995 16.0373L12.7116 15.1885L11.2315 14.6694ZM13.7752 15.587L13.1736 15.3776L12.2659 16.4595L12.5765 17.0153L12.1817 17.4854L10.6012 14.5803L11.0342 14.0645L14.1698 15.1168L13.7752 15.587Z" fill="white"/>
<path d="M14.9394 14.4038L13.147 12.5176L12.4716 13.1596L12.144 12.8152L13.8864 11.1597L14.2134 11.5041L13.5382 12.1459L15.3306 14.0319L14.9394 14.4038" fill="white"/>
<path d="M16.6073 12.9219L14.6917 10.5136L15.1144 10.1774L17.0295 12.586L16.6073 12.9219Z" fill="white"/>
<path d="M19.0074 9.37432C18.6654 8.8371 18.0715 8.65185 17.5499 8.98426C17.0244 9.31907 16.9449 9.9329 17.287 10.4701C17.6267 11.0035 18.2192 11.1949 18.7446 10.8601C19.2663 10.5279 19.3472 9.9075 19.0074 9.37432ZM16.8201 10.7675C16.3266 9.99308 16.5135 9.07502 17.2917 8.57945C18.0664 8.08599 18.9814 8.30224 19.4743 9.07688C19.9678 9.85134 19.7771 10.7718 19.0027 11.265C18.2239 11.7608 17.3131 11.5421 16.8201 10.7675Z" fill="white"/>
<path d="M22.9469 9.14419L20.5828 7.79261L21.4823 9.80033L20.9897 10.0211L19.7319 7.21375L20.2372 6.98739L22.5437 8.28914L21.6725 6.34437L22.165 6.12361L23.4228 8.93119L22.9469 9.14419" fill="white"/>
<path d="M24.768 5.84267L24.6444 7.40561L25.7077 7.09789L24.768 5.84267ZM26.3686 8.02041L25.9861 7.51166L24.6302 7.90401L24.5785 8.53854L23.9894 8.70898L24.2948 5.41788L24.9418 5.23094L26.9577 7.84972L26.3686 8.02041Z" fill="white"/>
<path d="M27.5268 7.76202L27.0305 4.72694L27.563 4.63968L27.9826 7.20621L29.3209 6.98738L29.3975 7.4564L27.5268 7.76202" fill="white"/>
<path d="M33.8733 5.19688C33.881 4.90155 33.6643 4.70709 33.3596 4.69927L32.6174 4.68061L32.5927 5.65814L33.3356 5.67691C33.6396 5.68468 33.8657 5.49636 33.8733 5.19688V5.19688ZM33.77 7.31178L33.1205 6.1469L32.581 6.13348L32.552 7.28145L32.0129 7.26809L32.0899 4.19251L33.441 4.22621C34.0499 4.24126 34.4413 4.6433 34.4265 5.21494C34.4128 5.75943 34.0456 6.05 33.6706 6.10056L34.3971 7.3278L33.77 7.31178Z" fill="white"/>
<path d="M35.2112 7.43125L35.5697 4.37547L36.1055 4.43867L35.747 7.49403L35.2112 7.43125" fill="white"/>
<path d="M36.8871 6.07023C37.097 5.12399 37.9352 4.67158 38.809 4.86586C39.3951 4.99586 39.716 5.36022 39.8787 5.75594L39.3956 5.90851C39.2832 5.6473 39.039 5.40843 38.7051 5.3344C38.1108 5.20205 37.5689 5.55516 37.4278 6.19017C37.2887 6.8167 37.6281 7.3739 38.2232 7.50649C38.5293 7.57444 38.8309 7.49469 38.9947 7.39388L39.0982 6.92979L38.1966 6.72967L38.3 6.26559L39.7236 6.5818L39.4743 7.70395C39.1088 7.96775 38.6355 8.09419 38.1178 7.97924C37.2437 7.78526 36.6778 7.01182 36.8871 6.07023" fill="white"/>
<path d="M42.156 9.19044L42.6316 7.93076L41.1348 7.36539L40.6587 8.62524L40.1537 8.43439L41.2406 5.55652L41.7453 5.74719L41.3021 6.92055L42.7997 7.48648L43.2429 6.31263L43.7472 6.50353L42.661 9.38135L42.156 9.19044" fill="white"/>
<path d="M44.1406 10.1316L45.3683 7.83702L44.5469 7.39712L44.7712 6.97793L46.8905 8.11278L46.6668 8.53173L45.8446 8.09184L44.6167 10.3864L44.1406 10.1316Z" fill="white"/>
<path d="M46.1263 10.7379L46.6166 10.5674C46.6577 10.8719 46.818 11.2311 47.1702 11.4768C47.5334 11.73 47.7979 11.6501 47.9166 11.4791C48.2864 10.9495 46.5872 10.2545 47.2342 9.32661C47.5271 8.90645 48.1153 8.83808 48.6718 9.22574C49.0623 9.49777 49.2936 9.85136 49.3665 10.2395L48.8869 10.3947C48.826 10.054 48.6208 9.77565 48.3555 9.59082C48.0984 9.41122 47.8419 9.42392 47.7128 9.60942C47.3822 10.0824 49.055 10.8155 48.4003 11.7547C48.107 12.1748 47.5546 12.3297 46.877 11.8572C46.4108 11.5325 46.1906 11.1307 46.1263 10.7379Z" fill="white"/>
<path d="M51.8937 13.524C52.1946 13.6381 52.4645 13.7058 52.6508 13.5266C52.7871 13.3959 52.7749 13.2229 52.6533 13.0959C52.5127 12.9495 52.2846 12.9384 52.1213 13.0947C52.0213 13.1904 51.9466 13.3456 51.8937 13.524V13.524ZM51.2439 14.8321C51.2549 14.6036 51.2719 14.389 51.2914 14.262C51.3078 14.0859 51.3349 13.8941 51.3713 13.7124C51.1343 13.6583 50.9153 13.6633 50.729 13.8424C50.4862 14.0753 50.5219 14.3928 50.7197 14.5989C50.8572 14.7421 51.0415 14.8084 51.2439 14.8321ZM51.2209 15.6012C51.2197 15.5 51.2189 15.3663 51.2256 15.2198C50.9258 15.1874 50.6385 15.0736 50.3957 14.8206C50.019 14.4278 49.9248 13.9038 50.3444 13.5015C50.6876 13.1726 51.0809 13.2299 51.4567 13.3616C51.5343 13.1089 51.6428 12.8825 51.7961 12.7357C52.0924 12.4518 52.5645 12.4905 52.8964 12.8369C53.1839 13.1364 53.2575 13.5396 52.9676 13.8172C52.6314 14.1397 52.22 14.0039 51.8215 13.8553C51.7886 14.0342 51.7686 14.2068 51.7557 14.3401C51.7362 14.4995 51.7204 14.6561 51.7104 14.8056C51.9727 14.759 52.2189 14.6631 52.3874 14.5785L52.5292 14.9856C52.276 15.0818 51.9837 15.1704 51.6828 15.2095C51.6703 15.4768 51.661 15.754 51.6617 16.0607L51.2209 15.6012Z" fill="white"/>
<path d="M55.9639 18.4785C56.2124 18.3201 56.2594 18.0332 56.0967 17.7762L55.6982 17.1497L54.8773 17.6716L55.2751 18.2986C55.4385 18.5554 55.7182 18.6343 55.9639 18.4785V18.4785ZM53.2133 18.0898L55.8099 16.4394L56.5371 17.5839C56.8837 18.1291 56.7045 18.6635 56.2601 18.9456C55.8205 19.2252 55.2582 19.1563 54.9142 18.6153L54.4762 17.9267L53.5032 18.5455L53.2133 18.0898" fill="white"/>
<path d="M57.5051 21.4471C57.7719 21.3208 57.8483 21.0399 57.7178 20.7648L57.4004 20.0938L56.5165 20.5114L56.8338 21.1831C56.9643 21.4579 57.2342 21.5752 57.5051 21.4471V21.4471ZM55.5698 22.3061L56.3178 21.2023L56.0874 20.7145L55.0495 21.2052L54.8184 20.7178L57.5991 19.4027L58.177 20.6242C58.4372 21.1743 58.2546 21.705 57.7371 21.949C57.2453 22.1818 56.8205 21.985 56.607 21.6726L55.8378 22.8727L55.5698 22.3061" fill="white"/>
<path d="M56.108 23.641L58.9998 22.591L59.1836 23.0984L56.2923 24.1481L56.108 23.641Z" fill="white"/>
<path d="M56.838 25.9041L59.5193 23.968L59.6721 24.5624L57.4937 26.0837L60.1353 26.3686L60.2874 26.9632L57.0054 26.5567L56.838 25.9041Z" fill="white"/>
<path d="M60.0259 29.0025L58.5011 28.6373L58.6398 29.7355L60.0259 29.0025ZM57.626 30.2447L58.1879 29.9459L58.0112 28.5457L57.3922 28.3963L57.3151 27.7872L60.5197 28.6007L60.6034 29.2688L57.7032 30.8534L57.626 30.2447" fill="white"/>
<path d="M59.2655 31.1767C60.2153 31.1919 60.8449 31.908 60.8292 32.8169C60.8196 33.4345 60.4952 33.8166 60.1222 34.0363L59.8902 33.5763C60.1507 33.4326 60.3447 33.1359 60.3501 32.8087C60.3604 32.2 59.9059 31.7404 59.2561 31.7298C58.6155 31.7195 58.1375 32.1638 58.1277 32.772C58.1223 33.0995 58.3108 33.4028 58.5619 33.5544L58.3237 34.0117C57.9589 33.7707 57.6379 33.3821 57.6481 32.7645C57.6626 31.8561 58.3197 31.1611 59.2655 31.1767" fill="white"/>
<path d="M57.5331 35.487L58.801 35.6496L60.7381 34.694L60.6593 35.3075L59.2477 35.9771L60.4438 36.9822L60.365 37.5951L58.7321 36.1852L57.4645 36.0222L57.5331 35.487" fill="white"/>
<path d="M58.7213 41.5917L57.5153 40.5886L57.153 41.6352L58.7213 41.5917ZM56.0182 41.643L56.6548 41.6237L57.1161 40.2895L56.6278 39.8814L56.8281 39.3014L59.3413 41.4502L59.1208 42.0866L55.8179 42.2225L56.0182 41.643Z" fill="white"/>
<path d="M57.0599 43.1911C57.9105 43.6159 58.1691 44.534 57.7624 45.3477C57.4861 45.9006 57.0284 46.1056 56.597 46.1428L56.5862 45.6267C56.8836 45.6103 57.1871 45.4262 57.3333 45.133C57.6056 44.5883 57.3945 43.9775 56.8126 43.6864C56.2385 43.4003 55.6152 43.5943 55.3432 44.1393C55.1967 44.4324 55.2362 44.7874 55.3973 45.0331L54.9847 45.343C54.7597 44.9672 54.6379 44.4782 54.9135 43.9251C55.3197 43.1116 56.2138 42.7684 57.0599 43.1911" fill="white"/>
<path d="M53.6248 46.2615L55.7889 47.7074L56.3068 46.9327L56.7022 47.1964L55.3657 49.1955L54.9707 48.9318L55.4887 48.1564L53.3246 46.71L53.6248 46.2615" fill="white"/>
<path d="M20.8836 44.3925V41.8447H21.4373V44.3925H20.8836ZM20.8202 41.1904C20.8202 41.0004 20.973 40.8471 21.1632 40.8471C21.3529 40.8471 21.5059 41.0004 21.5059 41.1904C21.5059 41.3804 21.3529 41.5332 21.1632 41.5332C20.973 41.5332 20.8202 41.3804 20.8202 41.1904Z" fill="#50B7EB"/>
<path d="M24.2744 44.3925L23.0982 42.905L22.7869 43.2687V44.3925H22.1698V40.8737H22.7869V42.5457L24.1639 40.8737H24.9289L23.4993 42.5297L25.0399 44.3925H24.2744Z" fill="#50B7EB"/>
<path d="M26.4045 42.2347C25.9347 42.2347 25.7135 42.5986 25.6924 42.905H27.1269C27.1112 42.6041 26.9055 42.2347 26.4045 42.2347ZM25.1168 43.1154C25.1168 42.3769 25.6552 41.781 26.4097 41.781C27.1747 41.781 27.6596 42.3612 27.6596 43.1636V43.3004H25.6973C25.7399 43.6801 26.0245 44.0022 26.5046 44.0022C26.7578 44.0022 27.0477 43.9015 27.2324 43.7172L27.4857 44.0809C27.2273 44.3236 26.8528 44.4559 26.4517 44.4559C25.6815 44.4559 25.1168 43.923 25.1168 43.1154" fill="#50B7EB"/>
<path d="M29.3417 42.2347C28.8722 42.2347 28.6505 42.5986 28.6294 42.905H30.0641C30.0487 42.6041 29.843 42.2347 29.3417 42.2347ZM28.0543 43.1154C28.0543 42.3769 28.5924 41.781 29.3466 41.781C30.1116 41.781 30.5971 42.3612 30.5971 43.1636V43.3004H28.6347C28.6771 43.6801 28.9618 44.0022 29.4416 44.0022C29.6951 44.0022 29.9852 43.9015 30.1695 43.7172L30.4229 44.0809C30.1645 44.3236 29.7901 44.4559 29.3892 44.4559C28.6188 44.4559 28.0543 43.923 28.0543 43.1154" fill="#50B7EB"/>
<path d="M33.0756 43.1154C33.0756 42.6198 32.7904 42.2718 32.3526 42.2718C32.094 42.2718 31.825 42.4192 31.6986 42.6092V43.6173C31.8196 43.8071 32.094 43.965 32.3526 43.965C32.7904 43.965 33.0756 43.6112 33.0756 43.1154V43.1154ZM31.6986 44.0386V45.363H31.1447V41.8447H31.6986V42.1926C31.8885 41.9392 32.1838 41.781 32.516 41.781C33.1755 41.781 33.6449 42.2765 33.6449 43.1154C33.6449 43.9544 33.1755 44.4559 32.516 44.4559C32.1944 44.4559 31.9095 44.3078 31.6986 44.0386" fill="#50B7EB"/>
<path d="M33.9863 43.8964L34.335 43.4163C34.5725 43.6749 34.9573 43.907 35.4477 43.907C35.9544 43.907 36.1495 43.6589 36.1495 43.4215C36.1495 42.6833 34.103 43.1417 34.103 41.8499C34.103 41.2637 34.6089 40.8154 35.3847 40.8154C35.9278 40.8154 36.3761 40.9948 36.6977 41.3115L36.3498 41.7704C36.07 41.4909 35.6958 41.3644 35.3267 41.3644C34.9681 41.3644 34.7358 41.5438 34.7358 41.8023C34.7358 42.4618 36.7823 42.0556 36.7823 43.3639C36.7823 43.9493 36.3657 44.4559 35.4211 44.4559C34.7723 44.4559 34.3033 44.2232 33.9863 43.8964" fill="#50B7EB"/>
<path d="M38.891 43.8117V43.4215C38.7594 43.2475 38.522 43.1582 38.2845 43.1582C37.973 43.1582 37.7355 43.3427 37.7355 43.6173C37.7355 43.8964 37.973 44.0755 38.2845 44.0755C38.522 44.0755 38.7594 43.9865 38.891 43.8117V43.8117ZM38.891 44.3925V44.1127C38.7011 44.3344 38.4002 44.4559 38.0631 44.4559C37.6516 44.4559 37.1819 44.1707 37.1819 43.6112C37.1819 43.0207 37.6462 42.7778 38.0631 42.7778C38.411 42.7778 38.7011 42.889 38.891 43.1053V42.7256C38.891 42.4298 38.643 42.2507 38.2951 42.2507C38.0102 42.2507 37.7567 42.356 37.5404 42.5775L37.3084 42.1926C37.6039 41.9075 37.973 41.781 38.3797 41.781C38.9491 41.781 39.4447 42.0184 39.4447 42.6993V44.3925H38.891" fill="#50B7EB"/>
<path d="M40.2982 44.3925V42.3247H39.8762V41.8447H40.2982V41.7018C40.2982 41.1481 40.6203 40.8213 41.0999 40.8213C41.3326 40.8213 41.5591 40.8789 41.7123 41.0423L41.496 41.3856C41.422 41.3166 41.3267 41.2743 41.2056 41.2743C40.9842 41.2743 40.8523 41.4173 40.8523 41.7018V41.8447H41.369V42.3247H40.8523V44.3925H40.2982" fill="#50B7EB"/>
<path d="M42.9242 42.2347C42.4551 42.2347 42.2336 42.5986 42.2125 42.905H43.6471C43.6318 42.6041 43.4254 42.2347 42.9242 42.2347ZM41.6375 43.1154C41.6375 42.3769 42.1754 41.781 42.9301 41.781C43.6948 41.781 44.18 42.3612 44.18 43.1636V43.3004H42.2177C42.26 43.6801 42.5445 44.0022 43.0245 44.0022C43.278 44.0022 43.5683 43.9015 43.7529 43.7172L44.0056 44.0809C43.7477 44.3236 43.3725 44.4559 42.9724 44.4559C42.2017 44.4559 41.6375 43.923 41.6375 43.1154" fill="#50B7EB"/>
<path d="M20.8593 58.1194V53.2827H24.4048V54.37H22.1065V55.124H24.3542V56.212H22.1065V58.1194H20.8593" fill="white"/>
<path d="M25.3689 58.1194V53.2827H28.9146V54.37H26.6158V55.124H28.8641V56.212H26.6158V57.0314H28.9146V58.1194H25.3689" fill="white"/>
<path d="M32.7645 54.8849C32.7645 54.5516 32.4965 54.37 32.1627 54.37H31.1767V55.4068H32.1627C32.4965 55.4068 32.7645 55.2258 32.7645 54.8849ZM32.6269 58.1194L31.8147 56.4949H31.1767V58.1194H29.9294V53.2827H32.3512C33.4244 53.2827 34.0335 53.9932 34.0335 54.8926C34.0335 55.7329 33.5262 56.1826 33.0697 56.3425L34.0552 58.1194H32.6269" fill="white"/>
<path d="M37.8475 54.8926C37.8475 54.5588 37.579 54.37 37.2457 54.37H36.2594V55.4068H37.2457C37.579 55.4068 37.8475 55.2183 37.8475 54.8926ZM35.0122 58.1194V53.2827H37.4338C38.5218 53.2827 39.1166 54.0146 39.1166 54.8926C39.1166 55.7625 38.5218 56.4949 37.4338 56.4949H36.2594V58.1194H35.0122" fill="white"/>
<path d="M41.5378 54.5151L40.9211 56.3347H42.1464L41.5378 54.5151ZM42.7267 58.1194L42.4873 57.4228H40.5802L40.3409 58.1194H38.9268L40.7471 53.2827H42.3207L44.1408 58.1194H42.7267Z" fill="white"/>
</g>
<g clip-path="url(#clip1)">
<path d="M109.494 33.3605C109.494 48.6524 97.0975 61.0489 81.8055 61.0489C66.5136 61.0489 54.1171 48.6524 54.1171 33.3605C54.1171 18.0685 66.5136 5.67173 81.8055 5.67173C97.0975 5.67173 109.494 18.0685 109.494 33.3605Z" fill="white"/>
<path d="M94.5399 49.5568H69.07C63.8769 45.6702 60.5101 39.4706 60.5101 32.5C60.5101 20.758 70.063 11.205 81.8051 11.205C93.5471 11.205 103.1 20.758 103.1 32.5C103.1 39.4706 99.7332 45.6702 94.5399 49.5568ZM81.8051 -1.49012e-06C63.8844 -1.49012e-06 49.3051 14.5796 49.3051 32.5C49.3051 50.4204 63.8844 65 81.8051 65C99.7262 65 114.305 50.4204 114.305 32.5C114.305 14.5796 99.7262 -1.49012e-06 81.8051 -1.49012e-06Z" fill="#41B9B6"/>
<path d="M72.2689 32.9507C72.2689 32.6058 72.5506 32.3554 72.8642 32.3554H76.31C76.6236 32.3554 76.905 32.6058 76.905 32.9507V36.6746C76.905 36.988 76.6236 37.2694 76.31 37.2694H72.8642C72.5506 37.2694 72.2689 36.988 72.2689 36.6746V32.9507ZM72.0806 27.184C72.0806 25.8054 73.1773 24.6776 74.5557 24.6776C75.934 24.6776 77.0621 25.8054 77.0621 27.184C77.0621 28.5623 75.934 29.6588 74.5557 29.6588C73.1773 29.6588 72.0806 28.5623 72.0806 27.184Z" fill="#41B9B6"/>
<path d="M79.5028 25.3744C79.5028 25.0298 79.7847 24.7794 80.0981 24.7794H83.5439C83.8573 24.7794 84.1391 25.0298 84.1391 25.3744V36.6746C84.1391 36.988 83.8573 37.2694 83.5439 37.2694H80.0981C79.7847 37.2694 79.5028 36.988 79.5028 36.6746V25.3744ZM79.3147 19.6074C79.3147 18.2293 80.4115 17.1013 81.7898 17.1013C83.1682 17.1013 84.2957 18.2293 84.2957 19.6074C84.2957 20.9863 83.1682 22.0821 81.7898 22.0821C80.4115 22.0821 79.3147 20.9863 79.3147 19.6074" fill="#41B9B6"/>
<path d="M86.7367 28.6155C86.7367 28.271 87.0191 28.0204 87.3315 28.0204H90.7776C91.0914 28.0204 91.3731 28.271 91.3731 28.6155V36.6746C91.3731 36.988 91.0914 37.2694 90.7776 37.2694H87.3315C87.0191 37.2694 86.7367 36.988 86.7367 36.6746V28.6155ZM86.5486 22.849C86.5486 21.4701 87.6449 20.3424 89.0237 20.3424C90.4021 20.3424 91.5299 21.4701 91.5299 22.849C91.5299 24.2271 90.4021 25.3236 89.0237 25.3236C87.6449 25.3236 86.5486 24.2271 86.5486 22.849Z" fill="#41B9B6"/>
<path d="M60.3522 48.5756C59.5634 49.1069 58.6369 48.8798 58.1286 48.1258C57.783 47.6133 57.8302 47.1137 58.0099 46.72L58.4643 46.9652C58.3329 47.2317 58.3435 47.5863 58.5266 47.8578C58.8673 48.3625 59.5025 48.4804 60.0423 48.1164C60.5738 47.7579 60.7118 47.1196 60.3712 46.6141C60.188 46.3426 59.8596 46.202 59.5665 46.2215L59.5002 45.7102C59.9377 45.6992 60.4234 45.8329 60.7692 46.3461C61.2773 47.1003 61.1364 48.047 60.3522 48.5756" fill="white"/>
<path d="M58.7904 42.9012L57.5819 43.496L58.2889 44.9325L59.4973 44.3376L59.7352 44.822L56.9749 46.1804L56.7367 45.6961L57.8627 45.1424L57.1559 43.7059L56.03 44.2601L55.7916 43.776L58.5522 42.4176L58.7904 42.9012" fill="white"/>
<path d="M58.2608 41.6113L55.3792 42.6908L55.1897 42.186L58.071 41.1058L58.2608 41.6113Z" fill="white"/>
<path d="M57.7854 40.3194L54.8269 41.1676L54.6781 40.6485L57.1798 39.9315L56.8053 38.6274L57.2623 38.4962L57.7854 40.3194Z" fill="white"/>
<path d="M55.2266 35.9313C54.6436 36.0258 54.238 36.4657 54.3473 37.1397L54.4449 37.7408L56.5453 37.3999L56.4484 36.8035C56.3412 36.1428 55.8052 35.8372 55.2266 35.9313V35.9313ZM57.101 37.8575L54.0619 38.3504L53.8785 37.2203C53.7243 36.2686 54.2495 35.5285 55.138 35.3842C56.0353 35.2382 56.763 35.7749 56.917 36.7228L57.101 37.8575Z" fill="white"/>
<path d="M54.441 32.705C54.1457 32.7144 53.9638 32.942 53.9732 33.2464L53.9967 33.9886L54.9747 33.9583L54.9512 33.2154C54.9415 32.9107 54.7405 32.6958 54.441 32.705ZM56.559 32.6893L55.4322 33.4035L55.4493 33.9431L56.5973 33.9064L56.6145 34.4459L53.5389 34.5435L53.4959 33.1924C53.4771 32.5835 53.8561 32.1697 54.4281 32.1518C54.9723 32.1347 55.2834 32.485 55.3551 32.8569L56.5392 32.0618L56.559 32.6893" fill="white"/>
<path d="M56.5709 31.3602L53.505 31.1023L53.6818 29.0018L54.1553 29.0415L54.0236 30.6042L54.8143 30.6707L54.9431 29.1405L55.4166 29.1802L55.2878 30.7107L56.1425 30.7826L56.2745 29.2202L56.7475 29.2596L56.5709 31.3602Z" fill="white"/>
<path d="M57.2867 26.4338L54.8007 27.5456L56.9524 28.0035L56.84 28.5315L53.8317 27.8907L53.9469 27.3492L56.3582 26.2548L54.2746 25.8112L54.3867 25.2835L57.3951 25.9243L57.2867 26.4338" fill="white"/>
<path d="M55.8818 24.3804L55.6479 24.5387C55.6086 24.3712 55.4755 24.1646 55.3343 24.091C55.3357 24.1009 55.3291 24.1376 55.3195 24.1683C55.2734 24.3136 55.1227 24.3917 54.96 24.3405C54.7973 24.2885 54.7028 24.1133 54.7557 23.9467C54.8131 23.7659 55.0084 23.6535 55.263 23.7343C55.567 23.83 55.7868 24.0837 55.8818 24.3804Z" fill="white"/>
<path d="M57.5972 23.8446L57.3257 23.4027C57.6139 23.2971 57.9306 23.0634 58.0944 22.6668C58.264 22.2572 58.1287 22.0167 57.9371 21.9373C57.34 21.6905 57.0261 23.4984 55.9811 23.0657C55.5081 22.8697 55.3149 22.3106 55.5744 21.6836C55.7564 21.2447 56.0514 20.9419 56.4146 20.7879L56.6695 21.2226C56.3498 21.3554 56.1222 21.6159 55.9985 21.914C55.8786 22.2041 55.9459 22.4519 56.1546 22.5382C56.6878 22.7589 57.0445 20.9684 58.1017 21.4064C58.5752 21.6023 58.8453 22.1084 58.5294 22.8718C58.3119 23.3963 57.9672 23.6982 57.5972 23.8446" fill="white"/>
<path d="M60.2365 16.6076C59.7108 16.249 59.0917 16.313 58.7436 16.8236C58.3923 17.3383 58.5614 17.934 59.0878 18.2925C59.6099 18.6487 60.2299 18.5913 60.5809 18.0767C60.9293 17.5658 60.7591 16.9637 60.2365 16.6076V16.6076ZM58.776 18.75C58.0171 18.2323 57.8272 17.3155 58.3472 16.5533C58.8647 15.7946 59.7902 15.6331 60.5489 16.1501C61.3073 16.6677 61.4945 17.5886 60.977 18.3471C60.4575 19.1098 59.5342 19.2673 58.776 18.75" fill="white"/>
<path d="M63.7015 14.9062L60.992 14.6076L62.6186 16.0923L62.2542 16.4912L59.9801 14.4151L60.3537 14.0058L62.9903 14.2813L61.4152 12.8434L61.7793 12.4447L64.0532 14.5209L63.7015 14.9062" fill="white"/>
<path d="M64.6495 13.978L62.6406 11.647L63.0492 11.2946L64.7485 13.2661L65.7762 12.3803L66.0862 12.7402L64.6495 13.978" fill="white"/>
<path d="M66.6427 12.333L64.8214 9.85413L65.2561 9.53443L67.0774 12.0133L66.6427 12.333" fill="white"/>
<path d="M69.6066 10.4006L67.1009 9.32873L68.2261 11.2212L67.762 11.4975L66.1887 8.85098L66.6648 8.56768L69.1077 9.59673L68.0178 7.76391L68.4821 7.48766L70.0552 10.1342L69.6066 10.4006" fill="white"/>
<path d="M70.8053 9.77232L69.5776 6.95114L71.5104 6.11042L71.7001 6.5461L70.262 7.1719L70.5787 7.8993L71.9867 7.28596L72.1764 7.72182L70.7682 8.33468L71.1105 9.12136L72.5483 8.4955L72.7381 8.93118L70.8053 9.77232" fill="white"/>
<path d="M76.526 5.66986C76.4621 5.38139 76.2082 5.23942 75.9108 5.30544L75.1855 5.46626L75.3964 6.41724L76.1219 6.25619C76.4193 6.19016 76.5893 5.95364 76.526 5.66986V5.66986ZM75.2226 8.12476L74.5549 5.11947L75.8797 4.82541C76.5107 4.68542 76.9525 5.03605 77.0668 5.54973C77.1796 6.0592 76.9233 6.56512 76.2968 6.70409L75.4995 6.88133L75.75 8.0077L75.2226 8.12476" fill="white"/>
<path d="M79.7426 5.23732C79.7139 4.94343 79.4748 4.7769 79.1715 4.80639L78.4329 4.87969L78.5288 5.85301L79.2677 5.78012C79.5707 5.75027 79.7725 5.53565 79.7426 5.23732ZM79.9001 7.34939L79.1125 6.2731L78.5753 6.32558L78.6879 7.46928L78.1509 7.52194L77.8489 4.45972L79.1938 4.32671C79.8002 4.26713 80.2382 4.61861 80.2944 5.18742C80.3475 5.72933 80.0188 6.06318 79.653 6.15935L80.5243 7.28806L79.9001 7.34939" fill="white"/>
<path d="M81.2524 7.2939L81.2019 4.21778L81.7414 4.20935L81.7915 7.28523L81.2524 7.2939Z" fill="white"/>
<path d="M83.5425 7.34635L82.5903 4.18229L83.2016 4.23225L83.9269 6.78542L85.0584 4.38451L85.6697 4.43447L84.2137 7.4016L83.5425 7.34635" fill="white"/>
<path d="M87.4113 5.32196L86.5727 6.64789L87.6574 6.87148L87.4113 5.32196ZM87.8126 7.99616L87.711 7.36777L86.328 7.08303L85.9866 7.62049L85.3848 7.49705L87.1903 4.72516L87.8502 4.86094L88.414 8.12009L87.8126 7.99616" fill="white"/>
<path d="M89.1171 6.73556C89.4234 5.83633 90.2984 5.45711 91.1584 5.75051C91.7434 5.9496 92.0072 6.37607 92.1019 6.79809L91.5929 6.87802C91.5363 6.58582 91.3136 6.31005 91.004 6.20449C90.4273 6.00816 89.8508 6.2985 89.6409 6.91401C89.434 7.5208 89.7098 8.11205 90.2862 8.30838C90.5959 8.41418 90.9421 8.3274 91.1636 8.13486L91.5259 8.50211C91.1843 8.77529 90.7164 8.96193 90.1318 8.76236C89.2713 8.4692 88.8122 7.63009 89.1171 6.73556" fill="white"/>
<path d="M92.582 9.7119L93.142 8.56272L92.8559 6.42145L93.4112 6.69205L93.5946 8.24416L94.9299 7.4319L95.486 7.70298L93.627 8.79949L93.0672 9.94843L92.582 9.7119" fill="white"/>
<path d="M98.8628 11.1615C99.0415 10.9265 98.9858 10.6408 98.7429 10.4569L98.1512 10.0072L97.5627 10.7828L98.1544 11.2326C98.3969 11.4166 98.687 11.3936 98.8628 11.1615V11.1615ZM96.147 11.7545L98.0089 9.30236L99.0892 10.1226C99.6038 10.5136 99.6222 11.0778 99.3036 11.4968C98.9886 11.912 98.4368 12.0434 97.9255 11.656L97.2754 11.1615L96.5777 12.0806L96.147 11.7545" fill="white"/>
<path d="M101.272 13.3362C101.477 13.1243 101.449 12.8345 101.231 12.6226L100.698 12.1064L100.018 12.8086L100.551 13.3254C100.769 13.5372 101.063 13.552 101.272 13.3362ZM99.7632 14.8222L100.075 13.5254L99.6867 13.15L98.8881 13.9752L98.5002 13.6L100.64 11.3896L101.611 12.3297C102.048 12.7529 102.064 13.3139 101.667 13.7248C101.288 14.1158 100.82 14.0812 100.511 13.8642L100.213 15.2588L99.7632 14.8222" fill="white"/>
<path d="M103.417 16.739C103.916 16.3443 104.04 15.7346 103.657 15.2494C103.271 14.7607 102.652 14.744 102.152 15.1384C101.656 15.5306 101.526 16.1395 101.912 16.6285C102.295 17.1135 102.921 17.1307 103.417 16.739V16.739ZM101.809 14.7042C102.529 14.135 103.461 14.2275 104.033 14.9518C104.603 15.6721 104.481 16.6041 103.761 17.1735C103.04 17.7429 102.105 17.6465 101.535 16.9259C100.963 16.2018 101.088 15.2734 101.809 14.7042Z" fill="white"/>
<path d="M103.239 19.2618L105.468 17.9173L104.987 17.1189L105.394 16.8732L106.635 18.9324L106.228 19.1781L105.747 18.3798L103.518 19.7243L103.239 19.2618" fill="white"/>
<path d="M104.288 21.0902L107.085 19.8089L107.963 21.7255L107.531 21.9237L106.877 20.4973L106.156 20.8278L106.796 22.2248L106.364 22.4223L105.724 21.0258L104.944 21.3831L105.597 22.809L105.165 23.007L104.288 21.0902" fill="white"/>
<path d="M106.866 23.1041C107.773 22.8168 108.598 23.2969 108.872 24.1634C109.058 24.7528 108.872 25.2188 108.588 25.5458L108.222 25.1826C108.423 24.9639 108.513 24.6207 108.414 24.3083C108.23 23.7273 107.654 23.4356 107.034 23.6321C106.422 23.8253 106.11 24.3985 106.294 24.9795C106.392 25.2921 106.668 25.5197 106.954 25.5836L106.874 26.0936C106.451 25.9805 106.022 25.7139 105.836 25.1243C105.562 24.2577 105.965 23.3892 106.866 23.1041" fill="white"/>
<path d="M106.515 27.6074L109.074 27.1337L108.904 26.2172L109.371 26.131L109.808 28.4939L109.342 28.5807L109.172 27.6642L106.613 28.138L106.515 27.6074" fill="white"/>
<path d="M106.839 29.7235L109.902 29.4216L109.955 29.9588L106.892 30.2607L106.839 29.7235" fill="white"/>
<path d="M108.507 33.5768C109.144 33.5873 109.625 33.1935 109.636 32.576C109.646 31.9532 109.177 31.549 108.541 31.5384C107.909 31.5281 107.423 31.9169 107.413 32.5393C107.403 33.1571 107.875 33.5662 108.507 33.5768V33.5768ZM108.55 30.985C109.467 30.9998 110.13 31.6612 110.115 32.5835C110.1 33.5016 109.416 34.145 108.498 34.1304C107.581 34.1151 106.918 33.4491 106.933 32.5317C106.948 31.6092 107.632 30.97 108.55 30.985Z" fill="white"/>
<path d="M106.614 36.9281L109.021 35.6534L106.843 35.3388L106.921 34.8044L109.966 35.2443L109.887 35.7918L107.553 37.0445L109.662 37.3489L109.585 37.883L106.54 37.4437L106.614 36.9281Z" fill="white"/>
<path d="M107.826 42.0833L106.64 41.0571L106.258 42.096L107.826 42.0833ZM105.122 42.0814L105.759 42.0751L106.247 40.7496L105.766 40.3318L105.978 39.7563L108.449 41.9538L108.216 42.5864L104.911 42.6574L105.122 42.0814" fill="white"/>
<path d="M106.177 43.5614C107.021 43.9982 107.266 44.9202 106.849 45.7278C106.564 46.2768 106.103 46.4747 105.671 46.506L105.668 45.9895C105.966 45.9777 106.271 45.7983 106.422 45.5073C106.702 44.9661 106.5 44.352 105.923 44.0535C105.353 43.7577 104.727 43.9434 104.447 44.4841C104.296 44.775 104.33 45.1306 104.488 45.3787L104.07 45.6819C103.851 45.3034 103.736 44.8126 104.021 44.2636C104.439 43.4561 105.337 43.1264 106.177 43.5614" fill="white"/>
<path d="M102.75 46.4989L104.897 47.9678L105.423 47.199L105.816 47.4675L104.458 49.4506L104.066 49.1825L104.593 48.4131L102.446 46.9444L102.75 46.4989" fill="white"/>
<path d="M70.1887 44.3925V41.8447H70.7424V44.3925H70.1887ZM70.1252 41.1904C70.1252 41.0004 70.2781 40.8471 70.4682 40.8471C70.6579 40.8471 70.811 41.0004 70.811 41.1904C70.811 41.3804 70.6579 41.5332 70.4682 41.5332C70.2781 41.5332 70.1252 41.3804 70.1252 41.1904Z" fill="#41B9B6"/>
<path d="M73.5797 44.3925L72.4035 42.905L72.0922 43.2687V44.3925H71.4751V40.8737H72.0922V42.5457L73.4692 40.8737H74.2342L72.8046 42.5297L74.3452 44.3925H73.5797Z" fill="#41B9B6"/>
<path d="M75.71 42.2347C75.2403 42.2347 75.019 42.5986 74.9979 42.905H76.4325C76.4167 42.6041 76.211 42.2347 75.71 42.2347ZM74.4224 43.1154C74.4224 42.3769 74.9607 41.781 75.7152 41.781C76.4802 41.781 76.9652 42.3612 76.9652 43.1636V43.3004H75.0028C75.0454 43.6801 75.3301 44.0022 75.8102 44.0022C76.0634 44.0022 76.3532 43.9015 76.538 43.7172L76.7913 44.0809C76.5329 44.3236 76.1583 44.4559 75.7573 44.4559C74.9871 44.4559 74.4224 43.923 74.4224 43.1154" fill="#41B9B6"/>
<path d="M78.647 42.2347C78.1775 42.2347 77.9558 42.5986 77.9347 42.905H79.3694C79.354 42.6041 79.1483 42.2347 78.647 42.2347ZM77.3596 43.1154C77.3596 42.3769 77.8977 41.781 78.6519 41.781C79.4169 41.781 79.9024 42.3612 79.9024 43.1636V43.3004H77.94C77.9824 43.6801 78.2671 44.0022 78.7469 44.0022C79.0004 44.0022 79.2905 43.9015 79.4748 43.7172L79.7282 44.0809C79.4698 44.3236 79.0954 44.4559 78.6945 44.4559C77.9241 44.4559 77.3596 43.923 77.3596 43.1154" fill="#41B9B6"/>
<path d="M82.3809 43.1154C82.3809 42.6198 82.0957 42.2718 81.6579 42.2718C81.3993 42.2718 81.1303 42.4192 81.0037 42.6092V43.6173C81.1249 43.8071 81.3993 43.965 81.6579 43.965C82.0957 43.965 82.3809 43.6112 82.3809 43.1154V43.1154ZM81.0037 44.0386V45.363H80.45V41.8447H81.0037V42.1926C81.1938 41.9392 81.4891 41.781 81.8213 41.781C82.4808 41.781 82.9502 42.2765 82.9502 43.1154C82.9502 43.9544 82.4808 44.4559 81.8213 44.4559C81.4997 44.4559 81.2148 44.3078 81.0037 44.0386" fill="#41B9B6"/>
<path d="M83.2915 43.8964L83.6397 43.4163C83.8776 43.6749 84.2625 43.907 84.7529 43.907C85.2596 43.907 85.4547 43.6589 85.4547 43.4215C85.4547 42.6833 83.4081 43.1417 83.4081 41.8499C83.4081 41.2637 83.9141 40.8154 84.6899 40.8154C85.233 40.8154 85.6813 40.9948 86.0029 41.3115L85.655 41.7704C85.3752 41.4909 85.0009 41.3644 84.6318 41.3644C84.2733 41.3644 84.041 41.5438 84.041 41.8023C84.041 42.4618 86.0875 42.0556 86.0875 43.3639C86.0875 43.9493 85.6709 44.4559 84.7263 44.4559C84.0775 44.4559 83.6084 44.2232 83.2915 43.8964" fill="#41B9B6"/>
<path d="M88.1962 43.8117V43.4215C88.0646 43.2475 87.8271 43.1582 87.5896 43.1582C87.2782 43.1582 87.0407 43.3427 87.0407 43.6173C87.0407 43.8964 87.2782 44.0755 87.5896 44.0755C87.8271 44.0755 88.0646 43.9865 88.1962 43.8117V43.8117ZM88.1962 44.3925V44.1127C88.0063 44.3344 87.7053 44.4559 87.3682 44.4559C86.9568 44.4559 86.4871 44.1707 86.4871 43.6112C86.4871 43.0207 86.9514 42.7778 87.3682 42.7778C87.7162 42.7778 88.0063 42.889 88.1962 43.1053V42.7256C88.1962 42.4298 87.9482 42.2507 87.5995 42.2507C87.3153 42.2507 87.0619 42.356 86.8456 42.5775L86.6136 42.1926C86.9091 41.9075 87.2782 41.781 87.6849 41.781C88.2543 41.781 88.7499 42.0184 88.7499 42.6993V44.3925H88.1962" fill="#41B9B6"/>
<path d="M89.6034 44.3925V42.3247H89.1814V41.8447H89.6034V41.7018C89.6034 41.1481 89.9255 40.8213 90.4051 40.8213C90.6378 40.8213 90.8642 40.8789 91.0175 41.0423L90.8012 41.3856C90.7271 41.3166 90.6319 41.2743 90.5108 41.2743C90.2894 41.2743 90.1575 41.4173 90.1575 41.7018V41.8447H90.6742V42.3247H90.1575V44.3925H89.6034" fill="#41B9B6"/>
<path d="M92.2293 42.2347C91.7603 42.2347 91.5388 42.5986 91.5177 42.905H92.9523C92.937 42.6041 92.7306 42.2347 92.2293 42.2347ZM90.9426 43.1154C90.9426 42.3769 91.4806 41.781 92.2352 41.781C93 41.781 93.4852 42.3612 93.4852 43.1636V43.3004H91.5229C91.5652 43.6801 91.8497 44.0022 92.3297 44.0022C92.5832 44.0022 92.8735 43.9015 93.0581 43.7172L93.3108 44.0809C93.0529 44.3236 92.6777 44.4559 92.2775 44.4559C91.5069 44.4559 90.9426 43.923 90.9426 43.1154" fill="#41B9B6"/>
<path d="M69.0662 55.7042C69.0662 54.2106 70.1972 53.2027 71.6835 53.2027C72.8513 53.2027 73.4822 53.8622 73.794 54.4935L72.7208 55.0083C72.5614 54.624 72.1476 54.3049 71.6835 54.3049C70.8931 54.3049 70.335 54.9068 70.335 55.7042C70.335 56.4949 70.8931 57.1042 71.6835 57.1042C72.1476 57.1042 72.5614 56.7845 72.7208 56.4006L73.794 56.9079C73.4822 57.5243 72.8513 58.2061 71.6835 58.2061C70.1972 58.2061 69.0662 57.1905 69.0662 55.7042" fill="white"/>
<path d="M78.2743 55.7042C78.2743 54.9136 77.7596 54.3049 76.9619 54.3049C76.1642 54.3049 75.6424 54.9136 75.6424 55.7042C75.6424 56.4871 76.1642 57.1042 76.9619 57.1042C77.7596 57.1042 78.2743 56.4871 78.2743 55.7042ZM74.3733 55.7042C74.3733 54.2325 75.4824 53.2027 76.9619 53.2027C78.4412 53.2027 79.5433 54.2325 79.5433 55.7042C79.5433 57.1766 78.4412 58.2061 76.9619 58.2061C75.4824 58.2061 74.3733 57.1766 74.3733 55.7042" fill="white"/>
<path d="M83.2987 54.8926C83.2987 54.5588 83.0306 54.37 82.6969 54.37H81.7108V55.4068H82.6969C83.0306 55.4068 83.2987 55.2183 83.2987 54.8926ZM80.4634 58.1194V53.2827H82.8856C83.9734 53.2827 84.5677 54.0146 84.5677 54.8926C84.5677 55.7625 83.9734 56.4949 82.8856 56.4949H81.7108V58.1194H80.4634" fill="white"/>
<path d="M88.2504 54.8926C88.2504 54.5588 87.9824 54.37 87.6485 54.37H86.663V55.4068H87.6485C87.9824 55.4068 88.2504 55.2183 88.2504 54.8926ZM85.4155 58.1194V53.2827H87.8373C88.9251 53.2827 89.5199 54.0146 89.5199 54.8926C89.5199 55.7625 88.9251 56.4949 87.8373 56.4949H86.663V58.1194H85.4155" fill="white"/>
<path d="M91.9416 54.5151L91.3244 56.3347H92.5505L91.9416 54.5151ZM93.1307 58.1194L92.8907 57.4228H90.9843L90.7449 58.1194H89.3308L91.1509 53.2827H92.7245L94.5441 58.1194H93.1307" fill="white"/>
</g>
<defs>
<clipPath id="clip0">
<rect width="65" height="65" fill="white"/>
</clipPath>
<clipPath id="clip1">
<rect width="65" height="65" fill="white" transform="translate(49.3054)"/>
</clipPath>
</defs>
</svg>