<svg width="106" height="40" viewBox="0 0 106 40" fill="none" xmlns="http://www.w3.org/2000/svg">
<rect y="0.5" width="106" height="40" rx="6" fill="white"/>
<path d="M27.4178 12.8176V19.882C27.4178 21.6305 26.6164 23.66 25.1619 25.5967C23.4667 27.853 20.9697 29.8447 17.9407 31.3564L17.6528 31.5L17.3649 31.3564C14.3359 29.8447 11.8388 27.853 10.1437 25.5967C8.6891 23.66 7.8877 21.6305 7.8877 19.882V12.8176L12.6385 9.49988H22.667L27.4178 12.8176Z" fill="#3C5366"/>
<path d="M27.4179 12.8177V19.882C27.4179 21.6305 26.6165 23.66 25.1619 25.5967C23.4668 27.8531 20.9697 29.8448 17.9407 31.3565L17.6528 31.5V9.49992H22.6671L27.4179 12.8177Z" fill="#314658"/>
<path d="M21.8557 12.0782H13.4498L10.4659 14.1618V19.8821C10.4659 21.848 12.4 25.6895 17.6528 28.5956C22.9055 25.6895 24.8396 21.848 24.8396 19.8821V14.1618L21.8557 12.0782Z" fill="#2B97EF"/>
<path d="M24.8397 14.1618V19.8821C24.8397 21.848 22.9056 25.6895 17.6528 28.5956V12.0782H21.8558L24.8397 14.1618Z" fill="#2187DA"/>
<path d="M22.0586 11.4336H13.247L9.82141 13.8258V19.8821C9.82141 21.1394 10.4582 22.7371 11.5682 24.2651C12.9196 26.1257 14.9156 27.8183 17.3408 29.1599L17.6528 29.3326L17.9648 29.1599C20.39 27.8183 22.386 26.1257 23.7374 24.2651C24.8474 22.7371 25.4842 21.1394 25.4842 19.8821V13.8258L22.0586 11.4336ZM24.1951 19.8821C24.1951 21.5971 22.4457 25.0987 17.6528 27.8557C12.8599 25.0987 11.1105 21.5971 11.1105 19.8821V14.4979L13.6527 12.7228H21.6529L24.1951 14.4979V19.8821Z" fill="#EFF5FA"/>
<path d="M25.4842 13.8258V19.8821C25.4842 21.1394 24.8474 22.7371 23.7375 24.2651C22.386 26.1257 20.3901 27.8183 17.9648 29.1599L17.6528 29.3326V27.8557C22.4458 25.0987 24.1951 21.5971 24.1951 19.8821V14.4979L21.653 12.7228H17.6528V11.4336H22.0586L25.4842 13.8258Z" fill="#C6E1EC"/>
<path d="M21.7677 16.9872L17.6528 21.2163L17.6442 21.2254L16.5979 22.3005L13.538 19.4386L14.4184 18.4972L16.5549 20.4957L17.6442 19.3768L17.6528 19.3677L20.8438 16.0882L21.7677 16.9872Z" fill="#EFF5FA"/>
<path d="M21.7677 16.9872L17.6528 21.2163V19.3677L20.8438 16.0882L21.7677 16.9872Z" fill="#C6E1EC"/>
<path d="M39.464 27.604C39.4213 27.4387 39.3627 27.2867 39.288 27.148C39.2133 27.0093 39.1173 26.8893 39 26.788C38.8827 26.6867 38.744 26.6093 38.584 26.556C38.4293 26.4973 38.248 26.468 38.04 26.468C37.736 26.468 37.472 26.5293 37.248 26.652C37.0293 26.7747 36.8507 26.94 36.712 27.148C36.5733 27.3507 36.4693 27.5827 36.4 27.844C36.336 28.1053 36.304 28.372 36.304 28.644C36.304 28.916 36.336 29.1827 36.4 29.444C36.4693 29.7053 36.5733 29.94 36.712 30.148C36.8507 30.3507 37.0293 30.5133 37.248 30.636C37.472 30.7587 37.736 30.82 38.04 30.82C38.264 30.82 38.4613 30.7827 38.632 30.708C38.8027 30.628 38.9493 30.5213 39.072 30.388C39.1947 30.2493 39.2907 30.0893 39.36 29.908C39.4293 29.7267 39.4747 29.532 39.496 29.324H40.472C40.4507 29.6653 40.376 29.9773 40.248 30.26C40.1253 30.5427 39.9573 30.788 39.744 30.996C39.5307 31.1987 39.28 31.356 38.992 31.468C38.704 31.58 38.3867 31.636 38.04 31.636C37.6133 31.636 37.2293 31.5587 36.888 31.404C36.552 31.244 36.2667 31.028 36.032 30.756C35.7973 30.484 35.616 30.1667 35.488 29.804C35.3653 29.4413 35.304 29.0547 35.304 28.644C35.304 28.2387 35.3653 27.8547 35.488 27.492C35.616 27.1293 35.7973 26.812 36.032 26.54C36.2667 26.268 36.552 26.052 36.888 25.892C37.2293 25.732 37.6133 25.652 38.04 25.652C38.36 25.652 38.6613 25.6973 38.944 25.788C39.2267 25.8733 39.4747 26.0013 39.688 26.172C39.9067 26.3373 40.0827 26.54 40.216 26.78C40.3493 27.02 40.432 27.2947 40.464 27.604H39.464ZM41.5814 25.788H45.6934V26.652H42.5814V28.148H45.4614V28.964H42.5814V30.636H45.7494V31.5H41.5814V25.788ZM46.8205 25.788H49.5485C50.1778 25.788 50.6498 25.924 50.9645 26.196C51.2792 26.468 51.4365 26.8467 51.4365 27.332C51.4365 27.604 51.3965 27.8307 51.3165 28.012C51.2365 28.188 51.1432 28.332 51.0365 28.444C50.9298 28.5507 50.8232 28.628 50.7165 28.676C50.6152 28.724 50.5405 28.756 50.4925 28.772V28.788C50.5778 28.7987 50.6685 28.8253 50.7645 28.868C50.8658 28.9107 50.9592 28.98 51.0445 29.076C51.1298 29.1667 51.1992 29.2867 51.2525 29.436C51.3112 29.5853 51.3405 29.772 51.3405 29.996C51.3405 30.332 51.3645 30.6387 51.4125 30.916C51.4658 31.188 51.5458 31.3827 51.6525 31.5H50.5805C50.5058 31.3773 50.4605 31.2413 50.4445 31.092C50.4338 30.9427 50.4285 30.7987 50.4285 30.66C50.4285 30.3987 50.4125 30.1747 50.3805 29.988C50.3485 29.796 50.2898 29.6387 50.2045 29.516C50.1192 29.388 50.0018 29.2947 49.8525 29.236C49.7085 29.1773 49.5218 29.148 49.2925 29.148H47.8205V31.5H46.8205V25.788ZM47.8205 28.388H49.4605C49.7805 28.388 50.0232 28.3133 50.1885 28.164C50.3538 28.0093 50.4365 27.78 50.4365 27.476C50.4365 27.2947 50.4098 27.148 50.3565 27.036C50.3032 26.9187 50.2285 26.828 50.1325 26.764C50.0418 26.7 49.9352 26.6573 49.8125 26.636C49.6952 26.6147 49.5725 26.604 49.4445 26.604H47.8205V28.388ZM51.9687 25.788H56.5927V26.652H54.7767V31.5H53.7767V26.652H51.9687V25.788ZM57.4549 25.788H58.4549V31.5H57.4549V25.788ZM59.8814 25.788H63.8254V26.652H60.8814V28.148H63.4654V28.964H60.8814V31.5H59.8814V25.788ZM64.8236 25.788H65.8236V31.5H64.8236V25.788ZM67.2502 25.788H71.3622V26.652H68.2502V28.148H71.1302V28.964H68.2502V30.636H71.4182V31.5H67.2502V25.788ZM72.4892 25.788H74.8572C75.2946 25.788 75.6732 25.8627 75.9932 26.012C76.3132 26.1613 76.5746 26.3667 76.7772 26.628C76.9799 26.884 77.1292 27.1853 77.2252 27.532C77.3266 27.8787 77.3772 28.2493 77.3772 28.644C77.3772 29.0387 77.3266 29.4093 77.2252 29.756C77.1292 30.1027 76.9799 30.4067 76.7772 30.668C76.5746 30.924 76.3132 31.1267 75.9932 31.276C75.6732 31.4253 75.2946 31.5 74.8572 31.5H72.4892V25.788ZM73.4892 30.684H74.4732C74.8626 30.684 75.1799 30.6333 75.4252 30.532C75.6759 30.4253 75.8706 30.2813 76.0092 30.1C76.1532 29.9133 76.2492 29.6973 76.2972 29.452C76.3506 29.2013 76.3772 28.932 76.3772 28.644C76.3772 28.356 76.3506 28.0893 76.2972 27.844C76.2492 27.5933 76.1532 27.3773 76.0092 27.196C75.8706 27.0093 75.6759 26.8653 75.4252 26.764C75.1799 26.6573 74.8626 26.604 74.4732 26.604H73.4892V30.684Z" fill="#2B3945"/>
<path d="M37.9318 11.7727V20.5H35.5625V11.7727H37.9318ZM43.7592 14.5C43.7365 14.2159 43.63 13.9943 43.4396 13.8352C43.2521 13.6761 42.9666 13.5966 42.5831 13.5966C42.3388 13.5966 42.1385 13.6264 41.9822 13.6861C41.8288 13.7429 41.7152 13.821 41.6413 13.9205C41.5675 14.0199 41.5291 14.1335 41.5263 14.2614C41.5206 14.3665 41.5391 14.4616 41.5817 14.5469C41.6271 14.6293 41.6982 14.7045 41.7947 14.7727C41.8913 14.8381 42.0149 14.8977 42.1655 14.9517C42.3161 15.0057 42.495 15.054 42.7024 15.0966L43.4183 15.25C43.9013 15.3523 44.3146 15.4872 44.6584 15.6548C45.0021 15.8224 45.2834 16.0199 45.5021 16.2472C45.7209 16.4716 45.8814 16.7244 45.9837 17.0057C46.0888 17.2869 46.1428 17.5937 46.1456 17.9261C46.1428 18.5 45.9993 18.9858 45.7152 19.3835C45.4311 19.7812 45.0249 20.0838 44.4964 20.2912C43.9709 20.4986 43.3388 20.6023 42.6001 20.6023C41.8416 20.6023 41.1797 20.4901 40.6143 20.2656C40.0518 20.0412 39.6143 19.696 39.3018 19.2301C38.9922 18.7614 38.8359 18.1619 38.8331 17.4318H41.0831C41.0973 17.6989 41.1641 17.9233 41.2834 18.1051C41.4027 18.2869 41.5703 18.4247 41.7862 18.5185C42.005 18.6122 42.2649 18.6591 42.5661 18.6591C42.8189 18.6591 43.0305 18.6278 43.201 18.5653C43.3714 18.5028 43.5007 18.4162 43.5888 18.3054C43.6768 18.1946 43.7223 18.0682 43.7251 17.9261C43.7223 17.7926 43.6783 17.6761 43.593 17.5767C43.5107 17.4744 43.3743 17.3835 43.1839 17.304C42.9936 17.2216 42.7365 17.1449 42.4126 17.0739L41.5433 16.8864C40.7706 16.7187 40.1612 16.4389 39.7152 16.0469C39.272 15.652 39.0518 15.1136 39.0547 14.4318C39.0518 13.8778 39.1996 13.3935 39.4979 12.9787C39.799 12.5611 40.2152 12.2358 40.7464 12.0028C41.2805 11.7699 41.8928 11.6534 42.5831 11.6534C43.2876 11.6534 43.897 11.7713 44.4112 12.0071C44.9254 12.2429 45.3217 12.5753 45.6001 13.0043C45.8814 13.4304 46.0234 13.929 46.0263 14.5H43.7592ZM55.5014 16.1364C55.5014 17.108 55.3125 17.9276 54.9347 18.5952C54.5568 19.2599 54.0469 19.7642 53.4048 20.108C52.7628 20.4489 52.0469 20.6193 51.2571 20.6193C50.4616 20.6193 49.7429 20.4474 49.1009 20.1037C48.4616 19.7571 47.9531 19.2514 47.5753 18.5866C47.2003 17.919 47.0128 17.1023 47.0128 16.1364C47.0128 15.1648 47.2003 14.3466 47.5753 13.6818C47.9531 13.0142 48.4616 12.5099 49.1009 12.169C49.7429 11.8253 50.4616 11.6534 51.2571 11.6534C52.0469 11.6534 52.7628 11.8253 53.4048 12.169C54.0469 12.5099 54.5568 13.0142 54.9347 13.6818C55.3125 14.3466 55.5014 15.1648 55.5014 16.1364ZM53.0639 16.1364C53.0639 15.6136 52.9943 15.1733 52.8551 14.8153C52.7188 14.4545 52.5156 14.1818 52.2457 13.9972C51.9787 13.8097 51.6491 13.7159 51.2571 13.7159C50.8651 13.7159 50.5341 13.8097 50.2642 13.9972C49.9972 14.1818 49.794 14.4545 49.6548 14.8153C49.5185 15.1733 49.4503 15.6136 49.4503 16.1364C49.4503 16.6591 49.5185 17.1009 49.6548 17.4616C49.794 17.8196 49.9972 18.0923 50.2642 18.2798C50.5341 18.4645 50.8651 18.5568 51.2571 18.5568C51.6491 18.5568 51.9787 18.4645 52.2457 18.2798C52.5156 18.0923 52.7188 17.8196 52.8551 17.4616C52.9943 17.1009 53.0639 16.6591 53.0639 16.1364ZM59.0053 20.5V18.7955L62.261 16.1023C62.4769 15.9233 62.6616 15.7557 62.815 15.5994C62.9712 15.4403 63.0906 15.277 63.1729 15.1094C63.2582 14.9418 63.3008 14.7557 63.3008 14.5511C63.3008 14.3267 63.2525 14.1349 63.1559 13.9759C63.0621 13.8168 62.9315 13.6946 62.7638 13.6094C62.5962 13.5213 62.4031 13.4773 62.1843 13.4773C61.9656 13.4773 61.7724 13.5213 61.6048 13.6094C61.44 13.6974 61.3121 13.8267 61.2212 13.9972C61.1303 14.1676 61.0849 14.375 61.0849 14.6193H58.8349C58.8349 14.0057 58.9727 13.4773 59.2482 13.0341C59.5238 12.5909 59.913 12.25 60.4158 12.0114C60.9187 11.7727 61.5082 11.6534 62.1843 11.6534C62.8832 11.6534 63.4883 11.7656 63.9996 11.9901C64.5138 12.2116 64.9102 12.5241 65.1886 12.9276C65.4698 13.331 65.6104 13.804 65.6104 14.3466C65.6104 14.6818 65.5408 15.0156 65.4016 15.348C65.2624 15.6776 65.0124 16.0426 64.6516 16.4432C64.2908 16.8438 63.7781 17.321 63.1133 17.875L62.2951 18.5568V18.608H65.7042V20.5H59.0053ZM67.1552 20.5L70.5813 13.7159V13.6648H66.5586V11.7727H73.0359V13.6648L69.5927 20.5H67.1552ZM77.701 20.7386C76.9084 20.7358 76.2237 20.5526 75.647 20.1889C75.0703 19.8253 74.6257 19.3011 74.3132 18.6165C74.0007 17.9318 73.8459 17.1108 73.8487 16.1534C73.8516 15.1932 74.0078 14.3778 74.3175 13.7074C74.63 13.0369 75.0732 12.527 75.647 12.1776C76.2237 11.8281 76.9084 11.6534 77.701 11.6534C78.4936 11.6534 79.1783 11.8295 79.755 12.1818C80.3317 12.5312 80.7763 13.0412 81.0888 13.7116C81.4013 14.3821 81.5561 15.196 81.5533 16.1534C81.5533 17.1165 81.397 17.9403 81.0845 18.625C80.772 19.3097 80.3274 19.8338 79.7507 20.1974C79.1768 20.5582 78.4936 20.7386 77.701 20.7386ZM77.701 18.8125C78.1101 18.8125 78.4453 18.5994 78.7067 18.1733C78.9709 17.7443 79.1016 17.071 79.0987 16.1534C79.0987 15.554 79.0391 15.0639 78.9197 14.6832C78.8004 14.3026 78.6357 14.0213 78.4254 13.8395C78.2152 13.6548 77.9737 13.5625 77.701 13.5625C77.2919 13.5625 76.9581 13.7699 76.6996 14.1847C76.4411 14.5994 76.3089 15.2557 76.3033 16.1534C76.3004 16.7642 76.3587 17.267 76.478 17.6619C76.5973 18.054 76.7621 18.3438 76.9723 18.5312C77.1854 18.7188 77.4283 18.8125 77.701 18.8125ZM86.4666 20.7386C85.674 20.7358 84.9893 20.5526 84.4126 20.1889C83.8359 19.8253 83.3913 19.3011 83.0788 18.6165C82.7663 17.9318 82.6115 17.1108 82.6143 16.1534C82.6172 15.1932 82.7734 14.3778 83.0831 13.7074C83.3956 13.0369 83.8388 12.527 84.4126 12.1776C84.9893 11.8281 85.674 11.6534 86.4666 11.6534C87.2592 11.6534 87.9439 11.8295 88.5206 12.1818C89.0973 12.5312 89.5419 13.0412 89.8544 13.7116C90.1669 14.3821 90.3217 15.196 90.3189 16.1534C90.3189 17.1165 90.1626 17.9403 89.8501 18.625C89.5376 19.3097 89.093 19.8338 88.5163 20.1974C87.9425 20.5582 87.2592 20.7386 86.4666 20.7386ZM86.4666 18.8125C86.8757 18.8125 87.2109 18.5994 87.4723 18.1733C87.7365 17.7443 87.8672 17.071 87.8643 16.1534C87.8643 15.554 87.8047 15.0639 87.6854 14.6832C87.5661 14.3026 87.4013 14.0213 87.1911 13.8395C86.9808 13.6548 86.7393 13.5625 86.4666 13.5625C86.0575 13.5625 85.7237 13.7699 85.4652 14.1847C85.2067 14.5994 85.0746 15.2557 85.0689 16.1534C85.0661 16.7642 85.1243 17.267 85.2436 17.6619C85.3629 18.054 85.5277 18.3438 85.7379 18.5312C85.951 18.7188 86.1939 18.8125 86.4666 18.8125ZM95.7095 11.7727V20.5H93.3402V13.9545H93.2891L91.38 15.0966V13.0852L93.5277 11.7727H95.7095Z" fill="#2B3945"/>
</svg>
