<svg width="131" height="131" viewBox="0 0 131 131" fill="none" xmlns="http://www.w3.org/2000/svg">
<path d="M105 43.5C105 53.165 97 69.5 84.5 65C75.1112 65 71 53.165 71 43.5C71 33.835 78.6112 26 88 26C97.3888 26 105 33.835 105 43.5Z" fill="#FFC700" fill-opacity="0.76"/>
<path d="M99.5365 60.6412C102.027 58.8336 104.096 56.5063 105.599 53.8205C107.102 51.1346 108.004 48.1543 108.241 45.0857C108.479 42.0171 108.047 38.9335 106.976 36.0481C105.905 33.1628 104.22 30.5447 102.037 28.3748C100.135 26.4796 97.8725 24.9847 95.3832 23.9787C92.8939 22.9726 90.2282 22.4758 87.5436 22.5174C76.3965 22.6763 67.3452 32.0879 67.3667 43.4979C67.3648 46.8469 68.1594 50.1484 69.685 53.1298C71.2106 56.1112 73.4234 58.687 76.1407 60.6446C76.2798 60.7496 76.3919 60.8861 76.4679 61.043C76.5439 61.1998 76.5815 61.3725 76.5777 61.5467V64.2793C75.5609 64.8656 74.7336 65.7311 74.1938 66.7733C73.6539 67.8155 73.4243 68.9906 73.532 70.1593C73.6397 71.3281 74.0803 72.4414 74.8015 73.3674C75.5227 74.2933 76.4943 74.993 77.6011 75.3836V77.7813C77.6029 79.4093 78.2505 80.9701 79.4017 82.1213C80.5529 83.2725 82.1137 83.9201 83.7417 83.9219H91.9292C93.5573 83.92 95.1181 83.2724 96.2692 82.1212C97.4204 80.9701 98.068 79.4093 98.0699 77.7813V75.3823C99.1767 74.9918 100.148 74.292 100.869 73.3661C101.591 72.4401 102.031 71.3268 102.139 70.158C102.247 68.9893 102.017 67.8142 101.477 66.772C100.937 65.7298 100.11 64.8643 99.0933 64.278V61.5465C99.09 61.3712 99.1284 61.1977 99.2055 61.0403C99.2825 60.8829 99.396 60.7461 99.5365 60.6412ZM71.4615 43.4905C71.4441 34.3105 78.6852 26.7383 87.6032 26.6112C87.6799 26.6112 87.7587 26.6094 87.8368 26.6094C92.0833 26.6093 96.1567 28.2931 99.1637 31.2916C100.921 33.0423 102.278 35.1533 103.141 37.479C104.003 39.8048 104.351 42.29 104.161 44.7632C103.97 47.2365 103.245 49.639 102.036 51.8051C100.828 53.9712 99.1632 55.8493 97.1582 57.31C96.4878 57.7941 95.9424 58.431 95.5672 59.1679C95.192 59.9048 94.9977 60.7206 95.0006 61.5475V63.4531H80.6724V61.5467C80.6758 60.7206 80.4821 59.9055 80.1075 59.1692C79.733 58.4328 79.1883 57.7963 78.5186 57.3125C76.3306 55.7332 74.5496 53.6562 73.3225 51.2529C72.0955 48.8496 71.4576 46.1889 71.4615 43.4905ZM91.9303 79.8281H83.7428C83.2001 79.8275 82.6798 79.6117 82.2961 79.228C81.9123 78.8442 81.6965 78.3239 81.6959 77.7813V75.7344H93.9771V77.7813C93.9765 78.3239 93.7607 78.8442 93.377 79.228C92.9932 79.6117 92.4729 79.8275 91.9303 79.8281ZM96.024 71.6406H79.649C79.1061 71.6406 78.5855 71.425 78.2017 71.0411C77.8178 70.6573 77.6021 70.1366 77.6021 69.5938C77.6021 69.0509 77.8178 68.5303 78.2017 68.1464C78.5855 67.7625 79.1061 67.5469 79.649 67.5469H96.024C96.5669 67.5469 97.0875 67.7625 97.4714 68.1464C97.8552 68.5303 98.0709 69.0509 98.0709 69.5938C98.0709 70.1366 97.8552 70.6573 97.4714 71.0411C97.0875 71.425 96.5669 71.6406 96.024 71.6406Z" fill="#412A7C"/>
<path d="M91.155 35.4475C92.4421 35.9876 93.5903 36.8119 94.5137 37.8587C95.437 38.9054 96.1116 40.1475 96.4868 41.4919C96.6402 42.0072 96.99 42.4415 97.4609 42.701C97.9317 42.9604 98.4857 43.0242 99.0032 42.8786C99.5207 42.7329 99.9602 42.3895 100.227 41.9226C100.493 41.4557 100.565 40.9026 100.427 40.383C99.8812 38.4405 98.9029 36.6465 97.5655 35.1356C96.2281 33.6247 94.5662 32.4359 92.7042 31.6582C92.2018 31.4527 91.6382 31.4552 91.1376 31.6651C90.637 31.8751 90.2403 32.2753 90.0347 32.7778C89.8292 33.2802 89.8316 33.8437 90.0416 34.3444C90.2515 34.845 90.6518 35.2417 91.1542 35.4473L91.155 35.4475Z" fill="#412A7C"/>
<path d="M89.8834 16.375V12.2812C89.8834 11.7384 89.6678 11.2178 89.2839 10.8339C88.9 10.45 88.3794 10.2344 87.8365 10.2344C87.2937 10.2344 86.7731 10.45 86.3892 10.8339C86.0053 11.2178 85.7897 11.7384 85.7897 12.2812V16.375C85.7897 16.9179 86.0053 17.4385 86.3892 17.8224C86.7731 18.2062 87.2937 18.4219 87.8365 18.4219C88.3794 18.4219 88.9 18.2062 89.2839 17.8224C89.6678 17.4385 89.8834 16.9179 89.8834 16.375Z" fill="#412A7C"/>
<path d="M76.1819 20.8999C76.5228 20.8992 76.8582 20.8135 77.1576 20.6505C77.457 20.4874 77.7109 20.2522 77.8964 19.9662C78.0819 19.6802 78.1931 19.3523 78.2199 19.0125C78.2466 18.6726 78.1881 18.3315 78.0497 18.0199L76.3845 14.28C76.1637 13.7841 75.7549 13.3962 75.2481 13.2016C74.7413 13.0071 74.1779 13.0218 73.682 13.2426C73.1861 13.4635 72.7981 13.8722 72.6036 14.3791C72.4091 14.8859 72.4238 15.4492 72.6446 15.9452L74.3098 19.6851C74.4708 20.047 74.7334 20.3544 75.0657 20.5701C75.398 20.7857 75.7857 20.9003 76.1819 20.8999Z" fill="#412A7C"/>
<path d="M66.5398 27.9035C66.9538 27.9037 67.3582 27.7782 67.6995 27.5438C68.0408 27.3093 68.303 26.9769 68.4514 26.5904C68.5998 26.2038 68.6275 25.7814 68.5308 25.3787C68.4342 24.9761 68.2177 24.6123 67.9099 24.3353L64.8678 21.5961C64.4642 21.2328 63.9329 21.0448 63.3907 21.0733C62.8485 21.1018 62.3398 21.3445 61.9766 21.748C61.6133 22.1516 61.4253 22.6829 61.4538 23.2251C61.4823 23.7673 61.725 24.276 62.1285 24.6393L65.1707 27.3769C65.5459 27.7162 66.0339 27.9039 66.5398 27.9035Z" fill="#412A7C"/>
<path d="M62.5292 36.8082C62.6969 36.2919 62.6526 35.7301 62.4062 35.2464C62.1597 34.7628 61.7312 34.3968 61.2149 34.2291L57.3214 32.9644C57.0653 32.8795 56.7949 32.846 56.5258 32.866C56.2567 32.8859 55.9941 32.9589 55.7533 33.0807C55.5125 33.2025 55.2982 33.3707 55.1226 33.5756C54.9471 33.7806 54.8138 34.0182 54.7304 34.2749C54.647 34.5315 54.6152 34.8021 54.6368 35.0711C54.6584 35.3401 54.733 35.6022 54.8563 35.8422C54.9796 36.0823 55.1491 36.2956 55.3551 36.4699C55.5611 36.6442 55.7996 36.776 56.0567 36.8578L59.9501 38.123C60.2058 38.2064 60.4753 38.2386 60.7434 38.2176C61.0115 38.1967 61.2728 38.123 61.5124 38.0009C61.7519 37.8788 61.9651 37.7107 62.1396 37.5061C62.314 37.3015 62.4465 37.0645 62.5292 36.8087V36.8082Z" fill="#412A7C"/>
<path d="M59.123 45.991L55.0518 46.419C54.783 46.4454 54.5222 46.5246 54.2842 46.6522C54.0462 46.7798 53.8359 46.9532 53.6652 47.1624C53.4945 47.3716 53.3669 47.6126 53.2898 47.8713C53.2126 48.1301 53.1875 48.4015 53.2157 48.6701C53.2439 48.9386 53.325 49.1989 53.4542 49.436C53.5835 49.673 53.7583 49.8822 53.9688 50.0514C54.1792 50.2206 54.421 50.3464 54.6803 50.4218C54.9396 50.4971 55.2112 50.5204 55.4796 50.4903L59.5511 50.0622C60.0885 50.0024 60.5804 49.7324 60.9194 49.3112C61.2584 48.8899 61.4169 48.3516 61.3604 47.8139C61.3039 47.2761 61.0368 46.7826 60.6176 46.441C60.1984 46.0995 59.6611 45.9377 59.123 45.991Z" fill="#412A7C"/>
<path d="M116.121 50.0622L120.193 50.4902C120.731 50.5442 121.269 50.3828 121.689 50.0413C122.109 49.6998 122.376 49.2059 122.433 48.6677C122.489 48.1296 122.33 47.5908 121.991 47.1694C121.651 46.748 121.159 46.4782 120.621 46.419L116.55 45.9909C116.281 45.9611 116.01 45.9846 115.751 46.0601C115.492 46.1355 115.25 46.2614 115.04 46.4306C114.83 46.5998 114.655 46.8089 114.526 47.0458C114.397 47.2827 114.316 47.5429 114.288 47.8112C114.259 48.0796 114.284 48.3509 114.362 48.6095C114.439 48.8681 114.566 49.1089 114.736 49.3181C114.907 49.5273 115.117 49.7008 115.355 49.8285C115.592 49.9561 115.853 50.0356 116.121 50.0622Z" fill="#412A7C"/>
<path d="M115.089 38.2234C115.304 38.2233 115.518 38.1892 115.722 38.1225L119.616 36.8578C119.871 36.7748 120.108 36.6422 120.313 36.4676C120.517 36.293 120.685 36.0799 120.807 35.8404C120.929 35.6009 121.003 35.3397 121.024 35.0718C121.045 34.8038 121.013 34.5343 120.93 34.2786C120.847 34.023 120.714 33.7862 120.54 33.5818C120.365 33.3774 120.152 33.2094 119.913 33.0874C119.673 32.9653 119.412 32.8917 119.144 32.8706C118.876 32.8495 118.606 32.8814 118.351 32.9644L114.458 34.2291C113.994 34.3794 113.599 34.6903 113.344 35.1059C113.089 35.5215 112.99 36.0146 113.066 36.4962C113.143 36.9779 113.388 37.4165 113.759 37.7332C114.13 38.0498 114.602 38.2236 115.089 38.2234Z" fill="#412A7C"/>
<path d="M110.502 27.377L113.544 24.6393C113.947 24.276 114.19 23.7673 114.218 23.2252C114.247 22.683 114.058 22.1518 113.695 21.7483C113.332 21.3449 112.823 21.1023 112.281 21.0739C111.739 21.0454 111.208 21.2336 110.804 21.5969L107.762 24.3353C107.366 24.7005 107.13 25.2071 107.105 25.7452C107.08 26.2833 107.269 26.8096 107.629 27.2098C107.99 27.6101 108.493 27.8521 109.031 27.8834C109.569 27.9147 110.097 27.7327 110.502 27.377Z" fill="#412A7C"/>
<path d="M99.4906 20.8999C99.8866 20.9001 100.274 20.7854 100.606 20.5698C100.938 20.3542 101.201 20.0468 101.362 19.6851L103.027 15.9452C103.248 15.4492 103.262 14.8859 103.068 14.3791C102.873 13.8722 102.485 13.4635 101.989 13.2426C101.494 13.0218 100.93 13.0071 100.423 13.2016C99.9165 13.3962 99.5078 13.7841 99.287 14.28L97.6218 18.0199C97.4834 18.3315 97.4249 18.6726 97.4516 19.0125C97.4784 19.3523 97.5896 19.6802 97.7751 19.9662C97.9606 20.2522 98.2145 20.4874 98.5139 20.6505C98.8133 20.8135 99.1487 20.8992 99.4896 20.8999H99.4906Z" fill="#412A7C"/>
<path d="M120.766 108.484H94.1562V106.438C94.1562 103.364 90.1567 101.126 88.9311 100.513C88.8259 100.46 88.7164 100.417 88.6039 100.383L68.5701 94.3727C67.3023 93.2528 62.7707 89.3203 57.2304 85.3311C48.3848 78.9631 41.526 75.7344 36.8438 75.7344H20.4688V73.6875C20.4688 73.1446 20.2531 72.624 19.8692 72.2401C19.4854 71.8563 18.9647 71.6406 18.4219 71.6406H6.14062C5.59776 71.6406 5.07713 71.8563 4.69327 72.2401C4.3094 72.624 4.09375 73.1446 4.09375 73.6875V118.719C4.09375 119.262 4.3094 119.782 4.69327 120.166C5.07713 120.55 5.59776 120.766 6.14062 120.766H18.4219C18.9647 120.766 19.4854 120.55 19.8692 120.166C20.2531 119.782 20.4688 119.262 20.4688 118.719V116.672H26.5139C27.7909 116.842 38.2366 118.904 47.4701 120.727C65.9388 124.373 68.5478 124.859 69.1237 124.859H120.766C122.394 124.857 123.954 124.21 125.106 123.059C126.257 121.908 126.904 120.347 126.906 118.719V114.625C126.904 112.997 126.257 111.436 125.106 110.285C123.954 109.134 122.394 108.486 120.766 108.484ZM16.375 116.672H8.1875V75.7344H16.375V116.672ZM122.812 118.719C122.812 119.261 122.596 119.782 122.212 120.165C121.829 120.549 121.308 120.765 120.766 120.766H69.2192C67.9422 120.596 57.4965 118.534 48.2643 116.711C29.7943 113.064 27.1853 112.578 26.6094 112.578H20.4688V79.8281H36.8438C44.5889 79.8281 60.6446 92.7467 66.1778 97.7247C66.4025 97.9268 66.6692 98.0768 66.9587 98.1638L87.2483 104.251C88.5227 104.918 89.8665 105.989 90.0612 106.5V110.531C90.0606 111.045 89.8672 111.539 89.5193 111.917C89.1715 112.295 88.6945 112.529 88.1827 112.571L68.274 108.589L54.2343 100.567C54.0008 100.433 53.7434 100.346 53.4765 100.312C53.2096 100.278 52.9387 100.297 52.6791 100.367C52.4194 100.438 52.1763 100.559 51.9635 100.724C51.7508 100.888 51.5726 101.093 51.4391 101.327C51.3056 101.56 51.2195 101.818 51.1857 102.085C51.1518 102.352 51.1709 102.623 51.2419 102.882C51.3129 103.142 51.4343 103.385 51.5993 103.597C51.7642 103.81 51.9695 103.988 52.2032 104.121L66.5314 112.308C66.7224 112.418 66.9297 112.495 67.1454 112.539L87.6142 116.632C87.7464 116.659 87.8808 116.672 88.0156 116.672C89.2852 116.67 90.5232 116.276 91.5598 115.543C92.5964 114.81 93.3808 113.775 93.8055 112.578H120.766C121.308 112.579 121.829 112.795 122.212 113.178C122.596 113.562 122.812 114.082 122.812 114.625V118.719Z" fill="#412A7C"/>
</svg>
