<svg width="127" height="140" viewBox="0 0 127 140" fill="none" xmlns="http://www.w3.org/2000/svg">
<path d="M37.6629 38.2729C29.591 38.2729 23.0252 44.5515 23.0252 52.2703C23.0252 56.9345 25.4957 61.3094 29.5309 63.8958V69.3781H45.795V63.8958C49.8301 61.3094 52.3006 56.9345 52.3006 52.2703C52.3006 44.5515 45.7348 38.2729 37.6629 38.2729ZM37.6629 55.3792C35.8657 55.3792 34.4101 53.9873 34.4101 52.2687C34.4101 50.5501 35.8657 49.1582 37.6629 49.1582C39.4601 49.1582 40.9157 50.5501 40.9157 52.2687C40.9157 53.9873 39.4601 55.3792 37.6629 55.3792Z" fill="#FFC700"/>
<path d="M103.114 42.0001C103.114 40.352 101.233 39.4113 99.9143 40.4002L94.0415 44.805C93.7613 45.0151 93.5412 45.2952 93.4033 45.6171L84.579 66.2061C84.2638 66.9414 83.5407 67.4182 82.7407 67.4182H77.6561C76.876 67.4182 76.1671 66.9646 75.8402 66.2563L74.1853 62.6705C73.7997 61.8348 74.4101 60.8808 75.3304 60.8808C78.9358 60.8808 81.8678 57.9488 81.8678 54.3435V49.4404C81.8678 48.5378 82.5995 47.8061 83.5022 47.8061C84.4048 47.8061 85.1365 47.0743 85.1365 46.1717V40C85.1365 38.8954 84.2411 38 83.1365 38H77.3304C76.2259 38 75.3304 38.8954 75.3304 40V46.1717C75.3304 47.0743 76.0621 47.8061 76.9648 47.8061C77.8674 47.8061 78.5991 48.5378 78.5991 49.4404V54.3435C78.5991 56.1461 77.1331 57.6121 75.3304 57.6121H73.1307C72.3505 57.6121 71.6416 57.1585 71.3147 56.4501L68.4004 50.1348C67.9954 49.257 68.3607 48.2162 69.2255 47.784C70.5885 47.103 70.5311 45.1387 69.1307 44.5383L58.3791 39.9293C57.2717 39.4545 55.9991 40.0595 55.668 41.218L52.5622 52.0866C52.1526 53.5201 53.6426 54.7566 54.9761 54.0897C55.8447 53.6552 56.9004 54.0289 57.3023 54.9131L57.3956 55.1185C57.9535 56.3461 57.0777 57.782 55.8895 58.4197C53.8442 59.5174 52.4496 61.666 52.4496 64.1495V65.4182C52.4496 66.5228 51.5542 67.4182 50.4496 67.4182H41.3748C40.2703 67.4182 39.3748 66.5228 39.3748 65.4182V58.7216C39.3748 57.876 39.9336 57.1524 40.6183 56.6561C41.8427 55.7686 42.6435 54.3353 42.6435 52.7091C42.6435 50.0059 40.4437 47.8061 37.7405 47.8061C35.0373 47.8061 32.8375 50.0059 32.8375 52.7091C32.8375 54.3353 33.6382 55.7686 34.8627 56.6561C35.5474 57.1524 36.1061 57.876 36.1061 58.7216V65.4182C36.1061 66.5228 35.2107 67.4182 34.1061 67.4182H26.9601C26.1767 67.4182 25.5034 67.9743 25.3554 68.7437C24.6039 72.6422 24.4976 76.6357 25.038 80.6317C25.0978 81.074 25.0179 81.5249 24.7997 81.9142L15.3077 98.849C14.6546 100.014 15.3054 101.48 16.6077 101.777L24.7709 103.639C25.6808 103.846 26.3262 104.655 26.3262 105.588V122.589C26.3262 123.694 27.2217 124.589 28.3262 124.589H40.6697C41.7742 124.589 42.6697 125.485 42.6697 126.589V137.298C42.6697 138.403 43.5651 139.298 44.6697 139.298H79.894C80.9985 139.298 81.894 138.403 81.894 137.298V117.55C81.894 116.906 82.2063 116.303 82.7203 115.915C93.4877 107.787 99.8552 95.075 99.8456 81.5357L99.8423 75.5736C99.8423 73.3264 99.6315 71.0334 99.2131 68.7567L99.1744 68.5454C99.0548 67.8925 98.4858 67.4182 97.822 67.4182C96.841 67.4182 96.1756 66.4202 96.5529 65.5146L102.96 50.1365C103.062 49.8928 103.114 49.6313 103.114 49.3673V42.0001ZM78.5991 42.903C78.5991 42.0004 79.3308 41.2687 80.2335 41.2687C81.1361 41.2687 81.8678 42.0004 81.8678 42.903C81.8678 43.8057 81.1361 44.5374 80.2335 44.5374C79.3308 44.5374 78.5991 43.8057 78.5991 42.903ZM37.7405 51.0748C38.6427 51.0748 39.3748 51.8069 39.3748 52.7091C39.3748 53.6113 38.6427 54.3435 37.7405 54.3435C36.8383 54.3435 36.1061 53.6113 36.1061 52.7091C36.1061 51.8069 36.8383 51.0748 37.7405 51.0748ZM99.8456 45.7844C99.8456 46.2485 99.3573 46.5503 98.9422 46.3427C98.527 46.1351 98.4757 45.563 98.8473 45.2847C99.2589 44.9766 99.8456 45.2703 99.8456 45.7844ZM71.4662 64.5802C72.0778 65.9054 71.1098 67.4182 69.6502 67.4182H67.8648C67.0804 67.4182 66.3685 66.9598 66.044 66.2457L64.8907 63.7084C64.2889 62.3842 65.257 60.8808 66.7115 60.8808H68.4792C69.2594 60.8808 69.9683 61.3344 70.2952 62.0428L71.4662 64.5802ZM57.6792 49.0827C57.2952 49.2747 56.8661 48.9186 56.9839 48.5058L57.8345 45.5267C58.1416 44.4511 59.323 43.8893 60.3511 44.3298L63.8225 45.817C64.2521 46.0011 64.2701 46.6034 63.8523 46.8128C63.5873 46.9456 63.4755 47.2647 63.5997 47.5339L66.9405 54.7724C67.5522 56.0976 66.5842 57.6105 65.1246 57.6105H63.4075C62.6234 57.6105 61.9116 57.1523 61.587 56.4385L58.3491 49.3197C58.2333 49.0652 57.9293 48.9576 57.6792 49.0827ZM55.7183 64.1495C55.7183 62.3468 57.1843 60.8808 58.987 60.8808C59.613 60.8808 60.1813 61.2468 60.4403 61.8167L61.7011 64.5907C62.3029 65.9149 61.3349 67.4182 59.8803 67.4182H57.7183C56.6137 67.4182 55.7183 66.5228 55.7183 65.4182V64.1495ZM96.5736 75.5752L96.5769 81.539C96.5867 94.6317 90.1392 106.889 79.3313 114.329C78.8883 114.634 78.6236 115.137 78.6236 115.675V134.03C78.6236 135.134 77.7282 136.03 76.6236 136.03H47.9367C46.8322 136.03 45.9367 135.134 45.9367 134.03V123.321C45.9367 122.216 45.0413 121.321 43.9367 121.321H31.5933C30.4887 121.321 29.5933 120.425 29.5933 119.321V102.98C29.5933 102.047 28.9477 101.238 28.0377 101.03L21.5961 99.5621C20.2937 99.2652 19.6428 97.7994 20.2959 96.6342L28.2669 82.4132C28.4494 82.0875 28.5149 81.7092 28.4525 81.3412C27.9444 78.3443 27.8345 75.3462 28.124 72.3922C28.2204 71.4079 29.0677 70.6853 30.0568 70.6853H94.4857C95.4797 70.6853 96.3294 71.4149 96.4228 72.4045C96.5232 73.4676 96.5736 74.5266 96.5736 75.5752ZM90.6473 67.4182C89.2115 67.4182 88.2434 65.9501 88.809 64.6303L94.926 50.3583C95.3792 49.3008 96.6291 48.8428 97.6583 49.3572L97.7146 49.3853C98.655 49.8553 99.071 50.9731 98.6667 51.9435L92.7325 66.1874C92.422 66.9327 91.6938 67.4182 90.8863 67.4182H90.6473Z" fill="#412A7C"/>
<path d="M41.0092 83.7617C45.5151 83.7617 49.1809 80.0959 49.1809 75.59H45.9122C45.9122 78.2932 43.7124 80.493 41.0092 80.493C38.306 80.493 36.1062 78.2932 36.1062 75.59H32.8375C32.8375 80.0942 36.5033 83.7617 41.0092 83.7617Z" fill="#412A7C"/>
<path d="M5 29L23 16" stroke="#412A7C" stroke-width="3"/>
<circle cx="25" cy="14" r="2.5" fill="#FFC700" stroke="#412A7C" stroke-width="3"/>
<circle cx="57" cy="20" r="2.5" fill="#FFC700" stroke="#412A7C" stroke-width="3"/>
<circle cx="83" cy="4" r="2.5" fill="#FFC700" stroke="#412A7C" stroke-width="3"/>
<circle cx="99" cy="11" r="2.5" fill="#FFC700" stroke="#412A7C" stroke-width="3"/>
<circle cx="123" cy="19" r="2.5" fill="#FFC700" stroke="#412A7C" stroke-width="3"/>
<circle cx="4" cy="29" r="2.5" fill="#FFC700" stroke="#412A7C" stroke-width="3"/>
<path d="M28.7369 14.3652L53.144 19.0268" stroke="#412A7C" stroke-width="3"/>
<path d="M59 20L81 5" stroke="#412A7C" stroke-width="3"/>
<path d="M86 5L97 10" stroke="#412A7C" stroke-width="3"/>
<path d="M102 12L121 18" stroke="#412A7C" stroke-width="3"/>
</svg>
