<svg width="129" height="129" viewBox="0 0 129 129" fill="none" xmlns="http://www.w3.org/2000/svg">
<path d="M81.5 52.433C85 69.0001 67.5 65.0001 60.5 67.0001C51.1112 67.0001 47.5 62.098 47.5 52.433C47.5 42.768 51.1112 36.933 60.5 36.933C69.8888 36.933 88 36.9329 81.5 52.433Z" fill="#FFC700" fill-opacity="0.76"/>
<circle cx="75.5" cy="20.5" r="3.5" fill="#FFC700"/>
<circle cx="92.5" cy="30.5" r="3.5" fill="#FFC700"/>
<circle cx="102.5" cy="57.5" r="3.5" fill="#FFC700"/>
<circle cx="79.5" cy="83.5" r="3.5" fill="#FFC700"/>
<path d="M109.6 55.9815C108.699 53.4549 106.305 51.7697 103.623 51.7745C100.943 51.7827 98.5587 53.4763 97.6684 56.004H84.5902V47.545H93.0492C94.2168 47.5452 95.1637 46.5989 95.164 45.4313C95.164 45.431 95.164 45.4305 95.164 45.4302V36.5816C98.4675 35.4137 100.199 31.789 99.0311 28.4852C97.8632 25.1817 94.2385 23.4503 90.9347 24.6181C87.631 25.786 85.8998 29.4107 87.0677 32.7145C87.7063 34.5213 89.1277 35.9426 90.9345 36.5816V43.3157H84.5902V39.0862C84.5905 37.9186 83.6441 36.9717 82.4765 36.9715C82.4763 36.9715 82.4757 36.9715 82.4755 36.9715H78.246V26.0075C81.5495 24.8397 83.2809 21.215 82.113 17.9112C80.9452 14.6077 77.3205 12.8762 74.0167 14.0441C70.7132 15.212 68.9818 18.8367 70.1496 22.1404C70.7883 23.9472 72.2097 25.3686 74.0164 26.0075V36.9712H65.5574V3.20942C65.5577 2.04181 64.6113 1.09493 63.4437 1.09467C63.4435 1.09467 63.4429 1.09467 63.4427 1.09467C37.3543 1.09467 16.9181 19.9829 16.9181 44.094C16.9181 55.5475 21.4645 70.7121 28.7848 83.6671C30.0994 85.9925 31.8144 88.4377 33.6297 91.0275C37.4682 96.4992 41.74 102.652 42.2045 108.008C40.5788 109.158 39.6274 111.037 39.6641 113.028C39.6702 114.458 40.164 115.843 41.0638 116.954C39.8122 118.189 39.1122 119.877 39.123 121.636C39.1267 125.138 41.965 127.976 45.4673 127.98H81.4181C84.9442 127.958 87.7851 125.082 87.7631 121.556C87.7629 121.533 87.7626 121.51 87.7624 121.487C87.761 119.767 87.0581 118.122 85.816 116.932C86.7274 115.778 87.2226 114.35 87.2212 112.879C87.2149 109.529 84.4945 106.819 81.145 106.826C81.0557 106.826 80.9663 106.828 80.877 106.832H65.5574V66.5775H69.7869V72.9218C69.7867 74.0894 70.733 75.0363 71.9006 75.0365C71.9009 75.0365 71.9014 75.0365 71.9017 75.0365H78.246V77.5409C74.9424 78.7088 73.2113 82.3337 74.3794 85.637C75.5475 88.9402 79.1722 90.6717 82.4755 89.5036C85.779 88.3357 87.5102 84.7107 86.342 81.4075C85.7034 79.6007 84.282 78.1796 82.4755 77.5409V72.9218C82.4757 71.7542 81.5294 70.8073 80.3618 70.807C80.3615 70.807 80.361 70.807 80.3607 70.807H74.0164V66.5775H82.4755C83.6431 66.5778 84.59 65.6314 84.5902 64.4638C84.5902 64.4635 84.5902 64.463 84.5902 64.4627V60.2332H97.6686C98.8429 63.528 102.465 65.2471 105.76 64.0728C109.055 62.8989 110.774 59.2763 109.6 55.9815ZM93.0492 28.5119C94.2171 28.5119 95.164 29.4588 95.164 30.6267C95.164 31.7946 94.2171 32.7414 93.0492 32.7414C91.8814 32.7414 90.9345 31.7946 90.9345 30.6267C90.9355 29.4593 91.8819 28.5132 93.0492 28.5119ZM37.0928 88.5987C35.3373 86.0956 33.6802 83.7332 32.4668 81.5854C25.591 69.4152 21.1476 54.6987 21.1476 44.094C21.1476 23.0043 38.6305 6.34639 61.3279 5.36964V20.1433C60.7665 20.1853 60.1936 20.2364 59.5809 20.3114C58.6832 20.4206 57.9544 21.0889 57.7677 21.9739L57.1233 25.0387C56.5925 25.1648 56.0632 25.3073 55.5351 25.4662L53.4275 23.1159C52.8237 22.4405 51.8567 22.2253 51.0235 22.5811C48.6566 23.6017 46.4226 24.9063 44.3705 26.4656C43.6481 27.0102 43.3522 27.9542 43.6343 28.8138L44.605 31.7713C44.2053 32.1472 43.8162 32.5374 43.4392 32.936L40.4849 31.9653C39.6255 31.687 38.6839 31.9817 38.1367 32.7005C36.5753 34.7531 35.2697 36.9881 34.249 39.3566C33.8937 40.1899 34.1089 41.1566 34.7838 41.7606L37.1351 43.8672C36.9771 44.3898 36.8356 44.9134 36.7109 45.4387L33.4222 46.0953C32.4335 46.2925 31.7216 47.1606 31.7216 48.1688V55.3801C31.7216 56.3883 32.4335 57.2565 33.4224 57.4537L36.7111 58.1103C36.8362 58.6347 36.9776 59.1587 37.1354 59.6818L34.7833 61.7884C34.1092 62.3929 33.8943 63.3591 34.2485 64.1923C35.2694 66.5606 36.5747 68.7959 38.1362 70.8485C38.6829 71.5681 39.625 71.8628 40.4844 71.5837L43.4387 70.613C43.8167 71.0116 44.2048 71.4018 44.6044 71.7777L43.6338 74.7309C43.352 75.5903 43.6473 76.5338 44.3689 77.0791C46.421 78.6409 48.6561 79.9467 51.024 80.9679C51.8573 81.3216 52.8232 81.1067 53.428 80.4331L55.5356 78.0828C56.0632 78.242 56.5927 78.3844 57.1238 78.5103L57.7672 81.573C57.953 82.4588 58.6821 83.1281 59.5803 83.2375C60.1939 83.3126 60.767 83.3636 61.3285 83.4057V106.832H46.3428C45.4781 100.6 41.0636 94.2602 37.0928 88.5987ZM44.4099 51.7742C44.4234 61.4608 51.7024 69.596 61.3279 70.6822V77.9546L60.9779 76.29C60.8013 75.4471 60.1312 74.7952 59.2835 74.6421C58.03 74.414 56.7976 74.0817 55.5993 73.6487C55.3696 73.567 55.1275 73.5253 54.8837 73.5247C54.2826 73.5247 53.7098 73.7809 53.309 74.2289L51.3204 76.4471C50.2183 75.8964 49.1549 75.2718 48.1369 74.5781L49.055 71.784C49.3238 70.9651 49.0692 70.0653 48.4115 69.5083C47.4364 68.6827 46.531 67.7779 45.7052 66.803C45.1466 66.1498 44.2497 65.8971 43.4323 66.1627L40.6393 67.0819C39.9451 66.0636 39.3205 64.9996 38.7693 63.8973L40.9893 61.9087C41.6295 61.3337 41.8584 60.4286 41.5685 59.6184C41.136 58.4198 40.8037 57.1875 40.575 55.9342C40.4207 55.0796 39.7593 54.4063 38.9073 54.2366L35.9509 53.6455V49.9035L38.9073 49.3129C39.759 49.1435 40.4207 48.4699 40.575 47.6153C40.8037 46.3612 41.136 45.1281 41.5682 43.9287C41.8587 43.1183 41.6293 42.2129 40.988 41.6385L38.7698 39.6517C39.3215 38.5499 39.9459 37.4859 40.6388 36.4671L43.4329 37.3862C44.2502 37.6516 45.1469 37.3992 45.7057 36.746C46.5336 35.7703 47.4395 34.8636 48.4142 34.0343C49.0692 33.4784 49.3225 32.581 49.0544 31.7647L48.1374 28.9706C49.1554 28.2772 50.2186 27.6528 51.3199 27.1016L53.3085 29.3198C53.8837 29.9595 54.7883 30.1887 55.5988 29.9C56.7971 29.4667 58.0294 29.1345 59.283 28.9066C60.1304 28.7543 60.8006 28.1032 60.9774 27.2605L61.3279 25.5959V32.8662C51.7024 33.9527 44.4234 42.0876 44.4099 51.7742ZM61.3279 37.1399V66.4086C53.2456 65.2515 47.6315 57.7614 48.7885 49.679C49.7192 43.1783 54.8269 38.0706 61.3279 37.1399ZM83.5328 121.636C83.5318 122.803 82.5854 123.749 81.4181 123.75H45.4673C44.278 123.73 43.33 122.75 43.3501 121.561C43.3507 121.536 43.3515 121.511 43.3525 121.487C43.3536 120.319 44.2999 119.373 45.4673 119.372H81.4181C82.6074 119.392 83.5553 120.373 83.5352 121.562C83.535 121.586 83.5342 121.611 83.5328 121.636ZM80.877 111.062C81.9423 110.964 82.8857 111.748 82.9838 112.813C82.9904 112.885 82.993 112.956 82.9917 113.028C82.9907 114.195 82.0443 115.142 80.877 115.143H46.0084C44.8191 115.122 43.8712 114.142 43.8912 112.953C43.8918 112.928 43.8926 112.904 43.8936 112.879C43.9388 111.825 44.8302 111.007 45.8844 111.052C45.9259 111.054 45.9671 111.057 46.0084 111.062H80.877V111.062ZM80.3607 81.3808C81.5286 81.3808 82.4755 82.3277 82.4755 83.4955C82.4755 84.6634 81.5286 85.6103 80.3607 85.6103C79.1928 85.6103 78.246 84.6634 78.246 83.4955C78.247 82.3282 79.1934 81.3821 80.3607 81.3808ZM76.1312 17.9382C77.2991 17.9382 78.246 18.885 78.246 20.0529C78.246 21.2208 77.2991 22.1677 76.1312 22.1677C74.9633 22.1677 74.0164 21.2208 74.0164 20.0529C74.0175 18.8856 74.9639 17.9395 76.1312 17.9382ZM80.3607 62.348H65.5574V41.2004H80.3607V62.348ZM103.623 60.2332C102.455 60.2332 101.508 59.2864 101.508 58.1185C101.508 56.9506 102.455 56.0037 103.623 56.0037C104.791 56.0037 105.738 56.9506 105.738 58.1185C105.737 59.2861 104.79 60.2322 103.623 60.2332Z" fill="#412A7C"/>
<path d="M83.8374 97.7619C83.0916 99.0953 82.4318 100.475 81.8622 101.892L85.7943 103.45C86.2981 102.199 86.8813 100.982 87.5403 99.8066L83.8374 97.7619Z" fill="#412A7C"/>
<path d="M88.5945 90.3127C87.7634 91.5065 86.9341 92.7206 86.1411 93.9474L89.6913 96.244C90.4594 95.0587 91.2617 93.8856 92.0661 92.7291L88.5945 90.3127Z" fill="#412A7C"/>
<path d="M93.4055 83.2766C92.6921 84.4083 91.8969 85.5793 91.0637 86.7813L94.5375 89.1934C95.4101 87.9378 96.2401 86.7131 96.9848 85.5278L93.4055 83.2766Z" fill="#412A7C"/>
<path d="M97.3736 75.9059C96.7674 77.174 96.1338 78.4275 95.4727 79.6668L99.2023 81.6618C99.8941 80.367 100.557 79.0556 101.19 77.7275L97.3736 75.9059Z" fill="#412A7C"/>
<path d="M100.677 68.145C100.185 69.4522 99.6617 70.7615 99.1082 72.0605L103.001 73.7169C103.577 72.36 104.122 70.9984 104.636 69.632L100.677 68.145Z" fill="#412A7C"/>
<path d="M109.965 43.6725L105.736 43.7056L105.738 44.0939C105.738 45.2731 105.683 46.5267 105.573 47.8154L109.788 48.1706C109.907 46.7643 109.967 45.3929 109.967 44.0939L109.965 43.6725Z" fill="#412A7C"/>
<path d="M108.888 34.6703L104.77 35.6328C105.079 36.9548 105.314 38.2932 105.474 39.6413L109.675 39.1415C109.496 37.6379 109.233 36.1451 108.888 34.6703Z" fill="#412A7C"/>
<path d="M105.848 26.1246L102.046 27.975C102.641 29.1966 103.167 30.4501 103.624 31.7295L107.608 30.3129C107.1 28.8852 106.512 27.4868 105.848 26.1246Z" fill="#412A7C"/>
<path d="M101.01 18.4668L97.698 21.0978C98.5444 22.1636 99.3338 23.2734 100.063 24.4227L103.637 22.1634C102.828 20.8855 101.951 19.6516 101.01 18.4668Z" fill="#412A7C"/>
<path d="M94.6725 12.0131L91.9775 15.272C93.0288 16.1417 94.0349 17.0647 94.9916 18.0373L98.0067 15.0716C96.948 13.996 95.8351 12.9753 94.6725 12.0131Z" fill="#412A7C"/>
<path d="M87.1902 6.97205L85.1788 10.6935C86.3869 11.3462 87.5693 12.0607 88.6928 12.8164L91.0534 9.30568C89.817 8.47564 88.518 7.6908 87.1902 6.97205Z" fill="#412A7C"/>
<path d="M78.9007 3.46344L77.6202 7.49469C78.9377 7.91182 80.2338 8.39108 81.4738 8.91765L83.1281 5.02677C81.7662 4.44627 80.3432 3.92181 78.9007 3.46344Z" fill="#412A7C"/>
<path d="M70.1266 1.52209L69.5854 5.71856C70.9495 5.89408 72.3145 6.13173 73.6426 6.427L74.5575 2.29662C73.1068 1.9765 71.6156 1.71612 70.1266 1.52209Z" fill="#412A7C"/>
</svg>
