<svg width="323" height="265" viewBox="0 0 323 265" fill="none" xmlns="http://www.w3.org/2000/svg">
<path d="M316.373 145.647L287.839 101.379V19.138C287.839 8.58593 279.254 0 268.702 0H54.281C43.7289 0 35.1436 8.5853 35.1436 19.138V55.4837C35.1436 58.097 37.2617 60.2144 39.8744 60.2144C42.487 60.2144 44.6051 58.097 44.6051 55.4837V19.138C44.6051 13.8023 48.946 9.46143 54.281 9.46143H268.701C274.036 9.46143 278.377 13.8023 278.377 19.138V162.082C278.377 163.418 278.094 164.722 277.574 165.921L267.952 155.487V25.4456C267.952 22.3807 265.478 19.8867 262.438 19.8867H230.298C227.684 19.8867 225.567 22.0041 225.567 24.6174C225.567 27.2306 227.684 29.3481 230.298 29.3481H258.492V145.227L242.702 128.105C237.258 122.201 228.319 121.924 222.5 126.894H146.83C144.218 126.894 142.099 129.011 142.099 131.624C142.099 134.238 144.218 136.355 146.83 136.355H217.482C217.147 139.3 217.689 142.351 219.194 145.072L222.958 151.872H100.024L103.788 145.072C104.235 144.263 104.59 143.423 104.871 142.566L106.466 143.748C107.31 144.373 108.299 144.678 109.28 144.678C110.614 144.678 111.936 144.115 112.868 143.033L127.191 126.388C128.895 124.407 128.671 121.42 126.691 119.716C124.71 118.012 121.723 118.236 120.019 120.217L108.565 133.529L102.551 129.074C102.143 128.546 101.705 128.036 101.218 127.56C95.3455 121.821 85.8758 122.037 80.281 128.105L69.8923 139.371V29.3475H211.383C213.996 29.3475 216.114 27.23 216.114 24.6168C216.114 22.0035 213.996 19.886 211.383 19.886H65.945C62.9047 19.886 60.4309 22.3801 60.4309 25.4449V149.63L45.408 165.921C44.8883 164.722 44.6051 163.418 44.6051 162.082V74.3984C44.6051 71.7851 42.487 69.6677 39.8744 69.6677C37.2617 69.6677 35.1436 71.7851 35.1436 74.3984V101.379L6.60922 145.647C-2.41636 159.65 -2.18045 177.59 7.2097 191.351L25.4274 218.049C27.934 221.722 29.3463 226.013 29.5128 230.457L30.628 260.353C30.7233 262.908 32.8451 264.988 35.5316 264.905C38.1423 264.808 40.1803 262.612 40.0825 260.001L38.9673 230.104C38.7346 223.876 36.7552 217.864 33.2432 212.716L15.0248 186.018C7.7837 175.407 7.60204 161.572 14.5619 150.774L35.1436 118.843V162.082C35.1436 166.1 36.4134 169.975 38.7056 173.19L36.1484 175.963C34.3773 177.884 34.4984 180.877 36.419 182.648C38.3403 184.418 41.3327 184.297 43.1039 182.377L87.2358 134.518C89.1817 132.409 92.5064 132.277 94.605 134.326C96.2544 135.938 96.6266 138.472 95.5095 140.49L68.9784 188.424C67.0236 191.955 67.4185 196.25 69.9832 199.364C75.1415 205.632 76.6837 214.284 74.0081 221.948C72.6904 225.721 71.9751 229.66 71.8818 233.656L71.3721 255.579C71.3109 258.222 73.4328 260.42 76.1034 260.42C78.665 260.42 80.7711 258.374 80.831 255.8L81.3407 233.877C81.4107 230.87 81.9487 227.906 82.9403 225.067C86.6984 214.305 84.5323 202.153 77.288 193.351C77.2085 193.254 77.1959 193.115 77.2571 193.006L83.7811 181.219H239.202L245.726 193.006C245.787 193.116 245.773 193.255 245.693 193.351C238.45 202.152 236.284 214.305 240.042 225.067C241.033 227.905 241.571 230.868 241.641 233.877L242.151 255.8C242.21 258.351 244.298 260.463 246.991 260.419C249.603 260.358 251.671 258.192 251.61 255.579L251.1 233.656C251.007 229.659 250.292 225.719 248.974 221.948C246.298 214.285 247.84 205.632 252.998 199.364C255.563 196.249 255.957 191.954 254.003 188.424L227.472 140.489C226.355 138.472 226.728 135.938 228.377 134.326C230.483 132.269 233.81 132.418 235.746 134.518L279.879 182.376C281.651 184.297 284.644 184.418 286.564 182.647C288.484 180.876 288.605 177.883 286.835 175.962L284.278 173.19C286.57 169.975 287.839 166.1 287.839 162.081V118.842L308.421 150.774C314.407 160.061 315.183 171.575 310.495 181.572C309.386 183.938 310.405 186.755 312.77 187.864C315.126 188.968 317.948 187.965 319.062 185.589C325.14 172.622 324.135 157.691 316.373 145.647ZM89.0177 171.757L94.7873 161.333H228.195L233.965 171.757H89.0177Z" fill="#412A7C"/>
</svg>
