<svg width="97" height="115" viewBox="0 0 97 115" fill="none" xmlns="http://www.w3.org/2000/svg">
<ellipse cx="48.5" cy="67" rx="24.5" ry="25" fill="#FFC700" fill-opacity="0.76"/>
<circle cx="66" cy="4" r="2.5" fill="#FFC700" stroke="#412A7C" stroke-width="3"/>
<circle cx="87" cy="18" r="2.5" fill="#FFC700" stroke="#412A7C" stroke-width="3"/>
<circle cx="12" cy="5" r="2.5" fill="#FFC700" stroke="#412A7C" stroke-width="3"/>
<circle cx="4" cy="18" r="2.5" fill="#FFC700" stroke="#412A7C" stroke-width="3"/>
<circle cx="68" cy="17" r="2.5" fill="#FFC700" stroke="#412A7C" stroke-width="3"/>
<circle cx="32" cy="11" r="2.5" fill="#FFC700" stroke="#412A7C" stroke-width="3"/>
<path d="M68 34L68 20" stroke="#412A7C" stroke-width="3" stroke-linecap="round" stroke-linejoin="round"/>
<path d="M32 32L32 14" stroke="#412A7C" stroke-width="3" stroke-linecap="round" stroke-linejoin="round"/>
<path d="M86.5 37.5V21.5" stroke="#412A7C" stroke-width="3" stroke-linecap="round" stroke-linejoin="round"/>
<path d="M20.5 28.5V17.5H12.5V8.5" stroke="#412A7C" stroke-width="3" stroke-linecap="round" stroke-linejoin="round"/>
<path d="M52.6759 80.084L46.9356 75.5454C46.7189 75.3717 46.47 75.2426 46.2033 75.1656C45.9365 75.0885 45.6571 75.065 45.3812 75.0963C45.1054 75.1277 44.8384 75.2133 44.5957 75.3483C44.3531 75.4833 44.1395 75.6649 43.9674 75.8828C43.7952 76.1006 43.6678 76.3504 43.5926 76.6177C43.5174 76.885 43.4958 77.1645 43.5291 77.4402C43.5623 77.7159 43.6498 77.9822 43.7864 78.2239C43.9231 78.4657 44.1062 78.678 44.3252 78.8486L44.543 79.0206C42.3832 78.3403 40.4352 77.1148 38.887 75.4624C37.3387 73.81 36.2425 71.7865 35.704 69.5871C35.1655 67.3876 35.2029 65.0865 35.8127 62.9058C36.4224 60.725 37.584 58.7382 39.1852 57.1371C39.5685 56.74 39.7806 56.2082 39.7757 55.6562C39.7708 55.1043 39.5493 54.5763 39.1589 54.1861C38.7685 53.7959 38.2405 53.5746 37.6885 53.5699C37.1366 53.5652 36.6049 53.7775 36.2079 54.1611C33.9506 56.418 32.3588 59.2533 31.6072 62.3556C30.8557 65.4579 30.9735 68.7074 31.9477 71.7471C32.9219 74.7869 34.7148 77.4995 37.1296 79.5871C39.5444 81.6747 42.4877 83.0565 45.6364 83.5809L44.3228 84.619C44.1038 84.7897 43.9207 85.002 43.784 85.2437C43.6474 85.4854 43.5599 85.7518 43.5266 86.0275C43.4934 86.3031 43.515 86.5827 43.5902 86.8499C43.6654 87.1172 43.7928 87.367 43.9649 87.5849C44.1371 87.8027 44.3507 87.9844 44.5933 88.1193C44.836 88.2543 45.1029 88.3399 45.3788 88.3713C45.6547 88.4027 45.9341 88.3791 46.2009 88.3021C46.4676 88.225 46.7165 88.0959 46.9332 87.9222L52.6759 83.3836C52.9253 83.1866 53.1268 82.9356 53.2653 82.6496C53.4038 82.3635 53.4758 82.0498 53.4758 81.732C53.4758 81.4142 53.4038 81.1005 53.2653 80.8145C53.1268 80.5284 52.9253 80.2775 52.6759 80.0804V80.084Z" fill="#412A7C"/>
<path d="M48.4994 38.1309C42.8886 38.1309 37.4039 39.7947 32.7387 42.9119C28.0735 46.029 24.4374 50.4596 22.2903 55.6433C20.1432 60.8269 19.5814 66.5309 20.676 72.0338C21.7706 77.5368 24.4724 82.5916 28.4398 86.559C32.4072 90.5264 37.462 93.2282 42.965 94.3228C48.4679 95.4174 54.1719 94.8556 59.3555 92.7085C64.5392 90.5614 68.9698 86.9253 72.0869 82.2601C75.2041 77.5949 76.8679 72.1102 76.8679 66.4994C76.8596 58.9782 73.8681 51.7673 68.5498 46.449C63.2315 41.1307 56.0206 38.1392 48.4994 38.1309ZM48.4994 90.6577C43.7213 90.6577 39.0506 89.2408 35.0778 86.5863C31.1049 83.9318 28.0085 80.1587 26.18 75.7444C24.3516 71.3301 23.8731 66.4726 24.8053 61.7864C25.7374 57.1001 28.0383 52.7955 31.4169 49.4169C34.7955 46.0383 39.1001 43.7375 43.7863 42.8053C48.4726 41.8732 53.33 42.3516 57.7444 44.1801C62.1587 46.0086 65.9317 49.105 68.5862 53.0778C71.2408 57.0506 72.6577 61.7214 72.6577 66.4994C72.6507 72.9044 70.1032 79.0451 65.5741 83.5742C61.0451 88.1032 54.9044 90.6507 48.4994 90.6577Z" fill="#412A7C"/>
<path d="M94.8937 58.0501H86.5502C85.5763 53.6176 83.8251 49.3927 81.3777 45.571L87.2804 39.6742C87.476 39.4788 87.6312 39.2468 87.7371 38.9914C87.843 38.7359 87.8975 38.4621 87.8975 38.1856C87.8975 37.9091 87.843 37.6353 87.7371 37.3799C87.6312 37.1245 87.476 36.8924 87.2804 36.697L78.3066 27.7244C77.9119 27.33 77.3766 27.1084 76.8186 27.1084C76.2605 27.1084 75.7253 27.33 75.3306 27.7244L69.4302 33.6199C65.6087 31.1722 61.3837 29.421 56.9511 28.4474V20.1051C56.9513 19.8286 56.8969 19.5548 56.7912 19.2993C56.6855 19.0439 56.5304 18.8117 56.3349 18.6162C56.1394 18.4207 55.9073 18.2657 55.6518 18.1599C55.3963 18.0542 55.1225 17.9998 54.846 18H42.1552C41.8787 17.9998 41.6049 18.0542 41.3494 18.1599C41.0939 18.2657 40.8618 18.4207 40.6663 18.6162C40.4708 18.8117 40.3157 19.0439 40.21 19.2993C40.1043 19.5548 40.0499 19.8286 40.0501 20.1051V28.4486C35.6175 29.4222 31.3925 31.1734 27.571 33.6211L21.6742 27.7184C21.2795 27.3239 20.7443 27.1024 20.1862 27.1024C19.6282 27.1024 19.093 27.3239 18.6982 27.7184L9.72442 36.691C9.52878 36.8864 9.37357 37.1184 9.26768 37.3739C9.16178 37.6293 9.10727 37.9031 9.10727 38.1796C9.10727 38.4561 9.16178 38.7299 9.26768 38.9853C9.37357 39.2408 9.52878 39.4728 9.72442 39.6682L15.6199 45.5686C13.1725 49.3903 11.4213 53.6152 10.4474 58.0477H2.10511C1.82862 58.0475 1.55481 58.1019 1.29933 58.2076C1.04386 58.3133 0.81173 58.4684 0.616221 58.6639C0.420712 58.8594 0.265658 59.0915 0.159922 59.347C0.0541859 59.6025 -0.000157787 59.8763 3.44109e-07 60.1528V72.8436C-0.000157787 73.1201 0.0541859 73.3939 0.159922 73.6494C0.265658 73.9049 0.420712 74.137 0.616221 74.3325C0.81173 74.528 1.04386 74.6831 1.29933 74.7888C1.55481 74.8945 1.82862 74.9489 2.10511 74.9487H10.4486C11.4225 79.3812 13.1737 83.6061 15.6211 87.4278L9.71961 93.3306C9.52396 93.526 9.36876 93.758 9.26286 94.0134C9.15697 94.2689 9.10246 94.5427 9.10246 94.8192C9.10246 95.0957 9.15697 95.3695 9.26286 95.6249C9.36876 95.8804 9.52396 96.1124 9.71961 96.3078L18.6934 105.28C19.0881 105.675 19.6234 105.896 20.1814 105.896C20.7395 105.896 21.2747 105.675 21.6694 105.28L27.5686 99.3789C31.3901 101.827 35.6151 103.578 40.0477 104.551V112.895C40.0475 113.171 40.1019 113.445 40.2076 113.701C40.3133 113.956 40.4684 114.188 40.6639 114.384C40.8594 114.579 41.0915 114.734 41.347 114.84C41.6025 114.946 41.8763 115 42.1528 115H54.8436C55.1201 115 55.3939 114.946 55.6494 114.84C55.9049 114.734 56.137 114.579 56.3325 114.384C56.528 114.188 56.6831 113.956 56.7888 113.701C56.8945 113.445 56.9489 113.171 56.9487 112.895V104.55C61.3813 103.577 65.6063 101.825 69.4278 99.3777L75.3306 105.279C75.7253 105.674 76.2605 105.895 76.8186 105.895C77.3766 105.895 77.9119 105.674 78.3066 105.279L87.2804 96.3066C87.476 96.1112 87.6312 95.8792 87.7371 95.6237C87.843 95.3683 87.8975 95.0945 87.8975 94.818C87.8975 94.5415 87.843 94.2677 87.7371 94.0122C87.6312 93.7568 87.476 93.5248 87.2804 93.3294L81.3789 87.4302C83.8263 83.6085 85.5775 79.3836 86.5514 74.9511H94.8949C95.1714 74.9513 95.4452 74.8969 95.7007 74.7912C95.9561 74.6855 96.1883 74.5304 96.3838 74.3349C96.5793 74.1394 96.7343 73.9073 96.8401 73.6518C96.9458 73.3963 97.0002 73.1225 97 72.846V60.1552C97.0002 59.8786 96.9458 59.6047 96.84 59.3491C96.7342 59.0936 96.579 58.8614 96.3834 58.6659C96.1877 58.4703 95.9555 58.3153 95.6998 58.2097C95.4442 58.104 95.1703 58.0498 94.8937 58.0501ZM92.7886 70.7385H84.818C84.322 70.7386 83.8419 70.9139 83.4625 71.2335C83.083 71.553 82.8287 71.9963 82.7442 72.4851C81.8778 77.5242 79.8965 82.3061 76.9449 86.4811C76.6595 86.8867 76.5264 87.3799 76.5691 87.874C76.6118 88.368 76.8275 88.8311 77.1783 89.1817L82.8151 94.8186L76.8186 100.815L71.1805 95.1783C70.8298 94.8277 70.3667 94.6121 69.8727 94.5695C69.3787 94.5268 68.8855 94.6597 68.4799 94.9449C64.305 97.8962 59.5237 99.8779 54.4851 100.745C53.9963 100.83 53.553 101.084 53.2335 101.464C52.9139 101.843 52.7386 102.323 52.7385 102.819V110.789H44.2603V102.819C44.2602 102.323 44.0849 101.843 43.7653 101.464C43.4458 101.084 43.0025 100.83 42.5137 100.745C37.4751 99.8779 32.6938 97.8962 28.5189 94.9449C28.1133 94.6597 27.6201 94.5268 27.1261 94.5695C26.6321 94.6121 26.169 94.8277 25.8183 95.1783L20.1802 100.815L14.1837 94.8186L19.8205 89.1817C20.1713 88.8311 20.387 88.368 20.4297 87.874C20.4724 87.3799 20.3393 86.8867 20.0539 86.4811C17.1023 82.3061 15.121 77.5242 14.2546 72.4851C14.1702 71.9963 13.9158 71.553 13.5363 71.2335C13.1569 70.9139 12.6768 70.7386 12.1808 70.7385H4.21023V62.2603H12.1808C12.6768 62.2602 13.1569 62.0849 13.5363 61.7653C13.9158 61.4458 14.1702 61.0025 14.2546 60.5137C15.121 55.4746 17.1023 50.6927 20.0539 46.5177C20.3393 46.1121 20.4724 45.6189 20.4297 45.1248C20.387 44.6308 20.1713 44.1677 19.8205 43.8171L14.1837 38.1802L20.1802 32.1837L25.8183 37.8205C26.1687 38.1715 26.6319 38.3874 27.126 38.4301C27.6201 38.4728 28.1134 38.3396 28.5189 38.0539C32.6938 35.1026 37.4751 33.1209 42.5137 32.2534C43.0025 32.1689 43.4458 31.9146 43.7653 31.5351C44.0849 31.1557 44.2602 30.6756 44.2603 30.1796V22.2102H52.7385V30.1796C52.7386 30.6756 52.9139 31.1557 53.2335 31.5351C53.553 31.9146 53.9963 32.1689 54.4851 32.2534C59.5237 33.1209 64.305 35.1026 68.4799 38.0539C68.8854 38.3396 69.3787 38.4728 69.8728 38.4301C70.3669 38.3874 70.8301 38.1715 71.1805 37.8205L76.8186 32.1837L82.8151 38.1802L77.1783 43.8171C76.8275 44.1677 76.6118 44.6308 76.5691 45.1248C76.5264 45.6189 76.6595 46.1121 76.9449 46.5177C79.8965 50.6927 81.8778 55.4746 82.7442 60.5137C82.8287 61.0025 83.083 61.4458 83.4625 61.7653C83.8419 62.0849 84.322 62.2602 84.818 62.2603H92.7886V70.7385Z" fill="#412A7C"/>
<path d="M51.3623 49.3698L52.6759 48.3317C52.8949 48.161 53.0781 47.9487 53.2147 47.707C53.3513 47.4653 53.4388 47.1989 53.4721 46.9232C53.5053 46.6476 53.4837 46.368 53.4085 46.1007C53.3333 45.8335 53.2059 45.5837 53.0338 45.3658C52.8616 45.148 52.6481 44.9663 52.4054 44.8314C52.1628 44.6964 51.8958 44.6107 51.6199 44.5794C51.344 44.548 51.0646 44.5716 50.7979 44.6486C50.5311 44.7257 50.2822 44.8548 50.0656 45.0284L44.3228 49.5671C44.0735 49.7641 43.872 50.0151 43.7334 50.3011C43.5949 50.5872 43.5229 50.9008 43.5229 51.2187C43.5229 51.5365 43.5949 51.8502 43.7334 52.1362C43.872 52.4223 44.0735 52.6732 44.3228 52.8703L50.0632 57.4089C50.2798 57.5826 50.5287 57.7116 50.7955 57.7887C51.0622 57.8658 51.3416 57.8893 51.6175 57.8579C51.8934 57.8266 52.1603 57.741 52.403 57.606C52.6457 57.471 52.8592 57.2894 53.0314 57.0715C53.2035 56.8536 53.3309 56.6039 53.4061 56.3366C53.4813 56.0693 53.5029 55.7898 53.4697 55.5141C53.4364 55.2384 53.3489 54.9721 53.2123 54.7304C53.0756 54.4886 52.8925 54.2763 52.6735 54.1057L52.4558 53.9337C54.6155 54.6138 56.5635 55.8391 58.1118 57.4914C59.6601 59.1437 60.7564 61.1672 61.2949 63.3665C61.8334 65.5659 61.796 67.8669 61.1862 70.0476C60.5764 72.2283 59.4148 74.215 57.8136 75.816C57.4188 76.2111 57.1971 76.7469 57.1973 77.3055C57.1976 77.864 57.4197 78.3996 57.8148 78.7944C58.2099 79.1893 58.7457 79.4109 59.3042 79.4107C59.8628 79.4105 60.3984 79.1884 60.7932 78.7932C63.0516 76.5363 64.6443 73.7005 65.3963 70.5975C66.1483 67.4945 66.0306 64.2442 65.056 61.2038C64.0815 58.1633 62.2878 55.4502 59.8721 53.3625C57.4563 51.2749 54.5119 49.8934 51.3623 49.3698Z" fill="#412A7C"/>
<path d="M48 4V2.5C47.1716 2.5 46.5 3.17157 46.5 4H48ZM62 5.5C62.8284 5.5 63.5 4.82843 63.5 4C63.5 3.17157 62.8284 2.5 62 2.5V5.5ZM49.5 20V4H46.5V20H49.5ZM48 5.5H62V2.5H48V5.5Z" fill="#412A7C"/>
<path d="M9 38H4.5V21" stroke="#412A7C" stroke-width="3" stroke-linecap="round" stroke-linejoin="round"/>
</svg>
