<svg width="118" height="118" viewBox="0 0 118 118" fill="none" xmlns="http://www.w3.org/2000/svg">
<path d="M50 11.5L44 9L39 15.5L45 19V24.5L39 28L44 36L50 32L53.5 34.5V41.5C53.5 42.3 60.1667 41.8333 63.5 41.5V34.5L68 32L73.5 36L78 29L72.5 23.5V19L78 15.5L73.5 9L68 11.5L63.5 9V3L54.5 2V9L50 11.5Z" fill="#FFC700"/>
<path d="M65.2002 21.9945C65.2002 18.5221 62.3761 15.698 58.9046 15.698C55.4323 15.698 52.6082 18.5221 52.6082 21.9945C52.6082 25.4659 55.4332 28.2901 58.9046 28.2901C62.3761 28.2901 65.2002 25.4659 65.2002 21.9945ZM58.9046 24.7988C57.358 24.7988 56.0994 23.5402 56.0994 21.9945C56.0994 20.4478 57.358 19.1892 58.9046 19.1892C60.4513 19.1892 61.709 20.4478 61.709 21.9945C61.709 23.5402 60.4513 24.7988 58.9046 24.7988Z" fill="#412A7C"/>
<path d="M93.2147 91.2359L89.4768 90.197C88.5468 89.9386 87.5862 90.4833 87.3279 91.4124C87.0704 92.3406 87.6141 93.303 88.5423 93.5613L92.2811 94.5993C99.5562 96.6186 104.638 103.304 104.638 110.857V114.509H89.5101V107.642C89.5101 106.679 88.7287 105.897 87.7645 105.897C86.8003 105.897 86.0189 106.679 86.0189 107.642V114.509H31.7903V107.642C31.7903 106.679 31.0089 105.897 30.0447 105.897C29.0805 105.897 28.299 106.679 28.299 107.642V114.509H13.1709V110.857C13.1709 103.304 18.252 96.6186 25.5289 94.5993L29.2659 93.5613C30.195 93.303 30.7388 92.3406 30.4813 91.4124C30.2229 90.4833 29.2605 89.9386 28.3315 90.197L24.5944 91.2359C15.8132 93.6721 9.67969 101.741 9.67969 110.857V116.254C9.67969 117.219 10.4611 118 11.4253 118H106.384C107.348 118 108.129 117.219 108.129 116.254V110.857C108.129 101.741 101.996 93.6721 93.2147 91.2359Z" fill="#412A7C"/>
<path d="M29.2299 49.8461C27.9435 51.0182 27.135 52.7053 27.135 54.5779V57.836C27.135 61.3659 30.006 64.2369 33.5359 64.2369H35.8667C37.4854 71.3598 42.3315 77.2691 48.7802 80.3409V85.6488H44.9396C44.7821 85.6488 44.6236 85.6705 44.4715 85.7128L36.1827 88.0157C35.2536 88.2731 34.7099 89.2355 34.9673 90.1646C35.1816 90.937 35.8838 91.443 36.649 91.443C36.803 91.443 36.9605 91.4223 37.1163 91.3791L41.5573 90.1457C42.1452 93.88 43.916 97.3208 46.6753 100C49.9739 103.203 54.3168 104.967 58.9046 104.967C63.4915 104.967 67.8344 103.203 71.1329 100C73.8923 97.3208 75.664 93.8809 76.251 90.1457L80.692 91.3791C80.8477 91.4232 81.0053 91.4439 81.1601 91.4439C81.9245 91.4439 82.6267 90.937 82.8409 90.1646C83.0984 89.2355 82.5546 88.274 81.6265 88.0157L73.3368 85.7128C73.1846 85.6714 73.0271 85.6497 72.8687 85.6497H69.029V80.3418C75.4776 77.2701 80.3238 71.3607 81.9416 64.2369H84.2733C87.8023 64.2369 90.6733 61.3659 90.6733 57.8369V54.5788C90.6733 52.7062 89.8648 51.0182 88.5792 49.847V42.2424C88.5792 41.2782 87.7969 40.4968 86.8336 40.4968H65.2002V36.045C66.159 35.6155 67.0691 35.0889 67.9226 34.4704L73.2927 37.5709C73.6933 37.8023 74.1704 37.8653 74.617 37.7447C75.0644 37.6249 75.4452 37.3323 75.6766 36.9317L80.2274 29.0508C80.4588 28.6492 80.5218 28.173 80.4012 27.7256C80.2815 27.2781 79.9889 26.8973 79.5883 26.666L74.2191 23.5654C74.2731 23.0397 74.301 22.5148 74.301 21.9936C74.301 21.4732 74.2731 20.9474 74.2191 20.4217L79.5883 17.3212C79.9889 17.0898 80.2815 16.709 80.4012 16.2616C80.5218 15.8141 80.4588 15.3379 80.2274 14.9373L75.6766 7.0554C75.4452 6.65479 75.0644 6.3622 74.617 6.24246C74.1704 6.12183 73.6942 6.18484 73.2927 6.41621L67.9226 9.51674C67.0691 8.89825 66.159 8.3716 65.2002 7.94217V1.74562C65.2002 0.781433 64.4187 0 63.4545 0H54.3546C53.3904 0 52.609 0.781433 52.609 1.74562V7.94307C51.6502 8.3725 50.7401 8.89915 49.8866 9.51764L44.5165 6.41711C44.1159 6.18575 43.6387 6.12363 43.1922 6.24336C42.7448 6.3631 42.364 6.65569 42.1326 7.0563L37.5817 14.9382C37.3504 15.3388 37.2873 15.815 37.4071 16.2625C37.5268 16.7099 37.8194 17.0907 38.2209 17.3221L43.5901 20.4226C43.5352 20.9483 43.5082 21.4741 43.5082 21.9945C43.5082 22.5148 43.5352 23.0406 43.5901 23.5663L38.2209 26.6669C37.8194 26.8982 37.5268 27.279 37.4071 27.7265C37.2873 28.1739 37.3504 28.6501 37.5817 29.0517L42.1326 36.9326C42.364 37.3332 42.7448 37.6258 43.1922 37.7456C43.6396 37.8662 44.1159 37.8032 44.5165 37.5718L49.8866 34.4713C50.7401 35.0898 51.6502 35.6164 52.609 36.0459V40.4977H48.9692C48.005 40.4977 47.2236 41.2791 47.2236 42.2433C47.2236 43.2075 48.005 43.9889 48.9692 43.9889H79.0364V59C79.0364 70.1012 70.0058 79.1318 58.9046 79.1318C47.8034 79.1318 38.7719 70.1012 38.7719 59V43.988H40.838C41.8022 43.988 42.5836 43.2066 42.5836 42.2424C42.5836 41.2782 41.8022 40.4968 40.838 40.4968H30.9756C30.0114 40.4968 29.2299 41.2782 29.2299 42.2424V49.8461ZM56.0993 40.4968V34.8647C56.0993 34.1247 55.633 33.4657 54.9362 33.219C53.557 32.732 52.2912 31.9991 51.1713 31.0413C50.6095 30.5605 49.8047 30.4867 49.1637 30.8558L44.2824 33.6745L41.4781 28.8167L46.3575 25.9989C46.9976 25.6297 47.3361 24.8969 47.202 24.1704C47.067 23.443 46.9994 22.7111 46.9994 21.9936C46.9994 21.2769 47.067 20.545 47.202 19.8167C47.3361 19.0902 46.9976 18.3583 46.3575 17.9883L41.4781 15.1713L44.2824 10.3135L49.1637 13.1313C49.8047 13.5022 50.6095 13.4275 51.1713 12.9468C52.2912 11.9889 53.557 11.2561 54.9362 10.769C55.633 10.5223 56.0993 9.86244 56.0993 9.12332V3.49124H61.7089V9.12332C61.7089 9.86334 62.1753 10.5223 62.873 10.769C64.2513 11.257 65.518 11.9889 66.637 12.9468C67.1988 13.4275 68.0036 13.5022 68.6446 13.1322L73.5258 10.3135L76.3302 15.1713L71.4507 17.9892C70.8106 18.3583 70.4721 19.0911 70.6072 19.8176C70.7413 20.5441 70.8088 21.276 70.8088 21.9945C70.8088 22.7129 70.7413 23.4448 70.6072 24.1704C70.4721 24.8978 70.8106 25.6297 71.4507 25.9998L76.3302 28.8167L73.5258 33.6745L68.6446 30.8567C68.0036 30.4867 67.1988 30.5605 66.637 31.0422C65.518 31.9991 64.2513 32.732 62.873 33.2199C62.1753 33.4666 61.7089 34.1256 61.7089 34.8656V40.4977H56.0993V40.4968ZM87.182 57.836C87.182 59.4402 85.8775 60.7456 84.2733 60.7456H82.4628C82.5051 60.1694 82.5276 59.587 82.5276 59V51.6682H84.2733C85.8775 51.6682 87.182 52.9736 87.182 54.5779V57.836ZM85.088 48.231C84.8206 48.1968 84.5487 48.177 84.2733 48.177H82.5276V43.988H85.0871V48.231H85.088ZM72.8651 89.2058C71.9828 96.1865 66.0905 101.476 58.9046 101.476C51.7177 101.476 45.8264 96.1865 44.9432 89.2058L45.1782 89.1401H48.9341C49.7642 93.8935 53.9171 97.5189 58.9046 97.5189C63.8912 97.5189 68.045 93.8935 68.8751 89.1401H72.6301L72.8651 89.2058ZM65.5378 81.6742V87.3945C65.5378 91.0523 62.5615 94.0276 58.9046 94.0276C55.2468 94.0276 52.2714 91.0523 52.2714 87.3945V81.6742C54.3762 82.2908 56.6026 82.623 58.9046 82.623C61.2066 82.623 63.432 82.2908 65.5378 81.6742ZM33.5359 60.7456C31.9316 60.7456 30.6263 59.4402 30.6263 57.836V54.5779C30.6263 52.9736 31.9316 51.6691 33.5359 51.6691H35.2815V59C35.2815 59.587 35.3031 60.1685 35.3455 60.7456H33.5359ZM35.2815 43.988V48.1779H33.5359C33.2595 48.1779 32.9877 48.1977 32.7212 48.231V43.988H35.2815Z" fill="#412A7C"/>
<path d="M89.5406 37.3332C89.7684 37.4332 90.0069 37.4809 90.241 37.4809C90.9126 37.4809 91.5527 37.0911 91.8399 36.4366C93.8457 31.8677 94.863 27.009 94.863 21.9936C94.863 16.9791 93.8457 12.1203 91.8399 7.55145C91.4528 6.66829 90.4228 6.26677 89.5406 6.65479C88.6574 7.0419 88.2559 8.07181 88.643 8.95407C90.4535 13.0782 91.3717 17.4652 91.3717 21.9936C91.3717 26.5219 90.4535 30.9089 88.643 35.0331C88.2559 35.9162 88.6574 36.9461 89.5406 37.3332Z" fill="#412A7C"/>
<path d="M83.1469 34.5271C83.3756 34.627 83.6133 34.6747 83.8473 34.6747C84.5189 34.6747 85.159 34.2849 85.4471 33.6304C87.0613 29.951 87.8805 26.0366 87.8805 21.9944C87.8805 17.9522 87.0613 14.037 85.4471 10.3576C85.0591 9.47531 84.0292 9.07379 83.1469 9.46091C82.2637 9.84802 81.8622 10.8779 82.2502 11.7611C83.6691 14.9949 84.3893 18.4375 84.3893 21.9935C84.3893 25.5496 83.6691 28.9931 82.2502 32.2269C81.8622 33.1101 82.2637 34.14 83.1469 34.5271Z" fill="#412A7C"/>
<path d="M27.568 37.4809C27.8021 37.4809 28.0398 37.4332 28.2684 37.3333C29.1507 36.9462 29.5522 35.9163 29.1651 35.0331C27.3547 30.9099 26.4373 26.5228 26.4373 21.9945C26.4373 17.4652 27.3547 13.0782 29.1651 8.955C29.5522 8.07184 29.1516 7.04283 28.2684 6.65482C27.3853 6.2677 26.3563 6.66922 25.9682 7.55148C23.9624 12.1203 22.946 16.98 22.946 21.9945C22.946 27.009 23.9633 31.8677 25.9682 36.4366C26.2554 37.0911 26.8955 37.4809 27.568 37.4809Z" fill="#412A7C"/>
<path d="M33.9608 34.6748C34.1949 34.6748 34.4335 34.6271 34.6612 34.5271C35.5444 34.14 35.9459 33.1101 35.5579 32.2269C34.1391 28.9932 33.4189 25.5506 33.4189 21.9945C33.4189 18.4384 34.1391 14.9949 35.5579 11.7611C35.9459 10.8789 35.5444 9.84897 34.6612 9.46185C33.779 9.07384 32.7491 9.47536 32.3619 10.3585C30.7469 14.037 29.9276 17.9523 29.9276 21.9945C29.9276 26.0367 30.7469 29.952 32.3619 33.6305C32.6491 34.285 33.2892 34.6748 33.9608 34.6748Z" fill="#412A7C"/>
</svg>
