<svg width="286" height="288" viewBox="0 0 286 288" fill="none" xmlns="http://www.w3.org/2000/svg">
    <circle cx="203" cy="204" r="77" fill="#FFC700" fill-opacity="0.78" />
    <path
        d="M202.5 288C156.459 288 119 250.541 119 204.5C119 158.459 156.459 121 202.5 121C248.541 121 286 158.459 286 204.5C286 250.541 248.541 288 202.5 288ZM202.5 133.846C163.538 133.846 131.846 165.55 131.846 204.5C131.846 243.45 163.538 275.154 202.5 275.154C241.462 275.154 273.154 243.45 273.154 204.5C273.154 165.55 241.462 133.846 202.5 133.846Z"
        fill="#412A7C" />
    <path
        d="M190.31 237C188.605 237 186.95 236.311 185.736 235.102L159.89 209.103C157.37 206.568 157.37 202.447 159.89 199.912C162.41 197.378 166.506 197.378 169.026 199.912L189.987 220.998L230.668 174.226C233.02 171.509 237.104 171.249 239.792 173.615C242.48 175.98 242.751 180.075 240.399 182.779L195.169 234.777C193.993 236.129 192.301 236.935 190.517 237C190.453 237 190.375 237 190.31 237Z"
        fill="#412A7C" />
    <path
        d="M118.354 261.625H31.1458C13.9782 261.625 0 247.659 0 230.479V68.5208C0 51.3408 13.9782 37.375 31.1458 37.375H56.0625C59.501 37.375 62.2916 40.1657 62.2916 43.6042C62.2916 47.0427 59.501 49.8333 56.0625 49.8333H31.1458C20.8428 49.8333 12.4583 58.2178 12.4583 68.5208V230.479C12.4583 240.782 20.8428 249.167 31.1458 249.167H118.354C121.793 249.167 124.583 251.957 124.583 255.396C124.583 258.834 121.793 261.625 118.354 261.625Z"
        fill="#412A7C" />
    <path
        d="M205.562 112.125C202.124 112.125 199.333 109.334 199.333 105.896V68.5208C199.333 58.2178 190.949 49.8333 180.646 49.8333H155.729C152.291 49.8333 149.5 47.0427 149.5 43.6042C149.5 40.1657 152.291 37.375 155.729 37.375H180.646C197.813 37.375 211.792 51.3408 211.792 68.5208V105.896C211.792 109.334 209.001 112.125 205.562 112.125Z"
        fill="#412A7C" />
    <path
        d="M143.271 74.75H68.5207C58.2177 74.75 49.8333 66.3655 49.8333 56.0625V31.1458C49.8333 27.7073 52.6239 24.9167 56.0624 24.9167H75.3728C78.2756 10.7142 90.8461 0 105.896 0C120.945 0 133.516 10.7142 136.419 24.9167H155.729C159.168 24.9167 161.958 27.7073 161.958 31.1458V56.0625C161.958 66.3655 153.574 74.75 143.271 74.75ZM62.2916 37.375V56.0625C62.2916 59.4885 65.0822 62.2916 68.5207 62.2916H143.271C146.709 62.2916 149.5 59.4885 149.5 56.0625V37.375H130.812C127.374 37.375 124.583 34.5843 124.583 31.1458C124.583 20.8428 116.199 12.4583 105.896 12.4583C95.5927 12.4583 87.2082 20.8428 87.2082 31.1458C87.2082 34.5843 84.4176 37.375 80.9791 37.375H62.2916Z"
        fill="#412A7C" />
    <path
        d="M168.187 112.125H43.6042C40.1657 112.125 37.375 109.334 37.375 105.896C37.375 102.457 40.1657 99.6667 43.6042 99.6667H168.187C171.626 99.6667 174.417 102.457 174.417 105.896C174.417 109.334 171.626 112.125 168.187 112.125Z"
        fill="#412A7C" />
    <path
        d="M130.812 149.5H43.6042C40.1657 149.5 37.375 146.709 37.375 143.271C37.375 139.832 40.1657 137.042 43.6042 137.042H130.812C134.251 137.042 137.042 139.832 137.042 143.271C137.042 146.709 134.251 149.5 130.812 149.5Z"
        fill="#412A7C" />
    <path
        d="M105.896 186.875H43.6042C40.1657 186.875 37.375 184.084 37.375 180.646C37.375 177.207 40.1657 174.417 43.6042 174.417H105.896C109.334 174.417 112.125 177.207 112.125 180.646C112.125 184.084 109.334 186.875 105.896 186.875Z"
        fill="#412A7C" />
</svg>