<svg width="296" height="296" viewBox="0 0 296 296" fill="none" xmlns="http://www.w3.org/2000/svg">
<g clip-path="url(#clip0)">
<path d="M152.61 296C118.236 296 90.5454 268.31 90.5454 233.935V167.097C90.5454 164.232 92.4551 162.323 95.3196 162.323H209.9C212.765 162.323 214.674 164.232 214.674 167.097V233.935C214.674 268.31 186.984 296 152.61 296ZM100.094 171.871V233.935C100.094 263.058 123.487 286.452 152.61 286.452C181.732 286.452 205.126 263.058 205.126 233.935V171.871H100.094Z" fill="#412A7C"/>
<path d="M95.3199 152.774C93.8877 152.774 92.9328 152.297 91.978 151.342L40.8941 100.258C17.978 77.3419 17.978 40.1032 40.8941 17.1871C63.8103 -5.72903 101.049 -5.72903 123.965 17.1871L175.049 68.271C176.959 70.1806 176.959 73.0452 175.049 74.9548L98.6619 151.342C97.707 152.297 96.7522 152.774 95.3199 152.774ZM82.4296 9.54839C55.2167 9.54839 33.2554 31.5097 33.2554 58.7226C33.2554 71.6129 38.507 84.5032 47.578 93.5742L95.3199 141.316L165.023 71.6129L117.281 23.871C108.21 14.8 95.3199 9.54839 82.4296 9.54839Z" fill="#412A7C"/>
<path d="M152.61 276.903C128.739 276.903 109.642 257.807 109.642 233.936V186.194H119.19V233.936C119.19 252.555 133.99 267.355 152.61 267.355V276.903Z" fill="#412A7C"/>
<path d="M205.126 167.097H195.578V152.774C195.578 139.407 206.081 128.903 219.449 128.903V138.452C211.332 138.452 205.126 144.658 205.126 152.774V167.097Z" fill="#412A7C"/>
<path d="M176.481 143.226H166.933V167.097H176.481V143.226Z" fill="#412A7C"/>
<path d="M143.062 143.226H133.513V152.774H143.062V143.226Z" fill="#412A7C"/>
<path d="M217.504 129.404C216.878 128.242 215.987 127.243 214.902 126.491C215.915 125.391 216.612 124.039 216.92 122.576C217.228 121.114 217.135 119.595 216.652 118.181C216.168 116.766 215.311 115.509 214.172 114.541C213.033 113.574 211.653 112.932 210.179 112.683C210.181 112.645 210.183 112.607 210.183 112.567C210.184 111.625 210.024 110.689 209.711 109.801C209.595 109.473 209.458 109.153 209.301 108.843C208.804 107.853 208.114 106.973 207.272 106.255C206.429 105.536 205.452 104.993 204.397 104.657C203.342 104.322 202.23 104.201 201.128 104.301C200.025 104.402 198.954 104.722 197.976 105.242C197.151 103.694 195.919 102.399 194.414 101.496C192.909 100.593 191.188 100.116 189.433 100.116C187.678 100.116 185.956 100.593 184.451 101.496C182.946 102.399 181.715 103.694 180.889 105.242C179.624 104.568 178.206 104.233 176.773 104.27C175.341 104.306 173.942 104.713 172.713 105.451C171.484 106.188 170.467 107.231 169.76 108.478C169.054 109.725 168.683 111.134 168.682 112.567C168.682 112.607 168.684 112.645 168.686 112.683C167.212 112.931 165.832 113.573 164.692 114.541C163.553 115.508 162.696 116.766 162.212 118.18C161.728 119.595 161.636 121.114 161.944 122.576C162.252 124.039 162.95 125.392 163.963 126.491C162.858 127.253 161.955 128.273 161.331 129.462C160.707 130.652 160.382 131.975 160.382 133.317C160.382 133.715 160.411 134.113 160.467 134.507C160.754 136.482 161.742 138.287 163.25 139.593C164.759 140.898 166.687 141.617 168.682 141.617H210.183C211.617 141.617 213.026 141.245 214.273 140.538C215.521 139.832 216.564 138.814 217.301 137.584C218.039 136.354 218.445 134.954 218.48 133.521C218.516 132.087 218.18 130.669 217.504 129.404Z" fill="#FFC700"/>
<path d="M209.711 109.8H196.35C194.882 109.8 193.475 109.217 192.437 108.18C191.399 107.142 190.816 105.735 190.816 104.267V100.216C192.321 100.433 193.752 101.001 194.996 101.875C196.24 102.748 197.261 103.902 197.977 105.242C199.032 104.68 200.195 104.353 201.388 104.282C202.581 104.211 203.775 104.398 204.889 104.831C206.003 105.263 207.011 105.931 207.843 106.789C208.675 107.647 209.312 108.674 209.711 109.8Z" fill="#FFC700"/>
<path d="M218.483 133.317C218.483 135.519 217.609 137.63 216.052 139.186C214.495 140.743 212.384 141.617 210.183 141.617H168.683C166.687 141.617 164.759 140.898 163.25 139.593C161.742 138.287 160.754 136.482 160.467 134.507C177.268 131.438 195.326 123.802 209.301 108.843C209.459 109.153 209.595 109.473 209.711 109.8C210.025 110.689 210.184 111.625 210.183 112.567C210.183 112.607 210.181 112.645 210.18 112.683C211.654 112.931 213.034 113.573 214.173 114.541C215.313 115.508 216.169 116.766 216.653 118.18C217.137 119.595 217.23 121.114 216.921 122.576C216.613 124.039 215.915 125.392 214.902 126.491C215.987 127.243 216.879 128.242 217.504 129.404C218.149 130.608 218.485 131.952 218.483 133.317Z" fill="#FFC700"/>
<path d="M240.616 66.9167V100.117C240.616 101.585 240.034 102.992 238.996 104.03C237.958 105.067 236.551 105.65 235.083 105.65H224.016L208.8 115.334L210.183 105.65H192.199C190.732 105.65 189.324 105.067 188.287 104.03C187.249 102.992 186.666 101.585 186.666 100.117V66.9167C186.666 65.4491 187.249 64.0417 188.287 63.004C189.324 61.9663 190.732 61.3833 192.199 61.3833H235.083C235.81 61.3827 236.53 61.5254 237.201 61.8032C237.873 62.0811 238.483 62.4886 238.997 63.0026C239.511 63.5165 239.919 64.1268 240.197 64.7984C240.474 65.47 240.617 66.1899 240.616 66.9167Z" fill="white"/>
<path d="M240.616 66.9167V100.117C240.616 101.585 240.034 102.992 238.996 104.03C237.958 105.067 236.551 105.65 235.083 105.65H224.016L208.8 115.334L210.183 105.65H192.199C190.732 105.65 189.324 105.067 188.287 104.03C187.249 102.992 186.666 101.585 186.666 100.117V96.6829C204.864 91.7616 223.51 81.1444 236.136 61.4836C237.398 61.7284 238.534 62.4044 239.352 63.3957C240.169 64.387 240.616 65.6318 240.616 66.9167Z" fill="white"/>
<path d="M200.5 69.6833H232.316V75.2167H200.5V69.6833Z" fill="#FFC700"/>
<path d="M200.5 91.8169H224.016V97.3503H200.5V91.8169Z" fill="#FFC700"/>
<path d="M200.5 80.7502H217.1V86.2836H200.5V80.7502Z" fill="#FFC700"/>
<path d="M190.999 113.264L193.401 114.637C193.837 113.873 194.468 113.238 195.229 112.797C195.989 112.355 196.853 112.123 197.733 112.123C198.613 112.123 199.477 112.355 200.237 112.797C200.998 113.238 201.629 113.873 202.065 114.637L204.467 113.264C203.789 112.077 202.809 111.09 201.626 110.404C200.443 109.717 199.1 109.356 197.733 109.356C196.366 109.356 195.023 109.717 193.84 110.404C192.657 111.09 191.677 112.077 190.999 113.264Z" fill="#412A7C"/>
<path d="M173.519 126.218L172.146 123.816C170.959 124.495 169.972 125.475 169.286 126.657C168.6 127.84 168.238 129.183 168.238 130.551C168.238 131.918 168.6 133.261 169.286 134.444C169.972 135.626 170.959 136.607 172.146 137.285L173.519 134.883C172.755 134.446 172.121 133.816 171.679 133.055C171.238 132.294 171.005 131.43 171.005 130.551C171.005 129.671 171.238 128.807 171.679 128.046C172.121 127.285 172.755 126.655 173.519 126.218Z" fill="#412A7C"/>
<path d="M235.083 60H192.2C190.366 60.0021 188.608 60.7314 187.311 62.0281C186.014 63.3248 185.285 65.0829 185.283 66.9167V99.5421C183.292 100.354 181.578 101.724 180.346 103.487C178.961 102.973 177.477 102.784 176.007 102.933C174.538 103.081 173.122 103.564 171.867 104.344C170.613 105.125 169.554 106.181 168.771 107.434C167.988 108.686 167.502 110.101 167.35 111.571C165.888 111.998 164.546 112.765 163.436 113.808C162.325 114.851 161.477 116.142 160.959 117.575C160.441 119.008 160.269 120.543 160.456 122.056C160.643 123.568 161.184 125.015 162.036 126.278C160.626 127.609 159.648 129.332 159.229 131.225C158.81 133.118 158.969 135.093 159.685 136.895C160.401 138.697 161.641 140.242 163.246 141.33C164.85 142.419 166.744 143.001 168.683 143.001H210.183C212.123 143.003 214.019 142.423 215.624 141.335C217.23 140.247 218.472 138.701 219.188 136.899C219.905 135.096 220.063 133.12 219.642 131.226C219.222 129.333 218.242 127.609 216.829 126.28C217.843 124.775 218.414 123.016 218.477 121.203C218.54 119.39 218.093 117.596 217.186 116.024L214.791 117.411C215.528 118.687 215.837 120.166 215.674 121.63C215.511 123.095 214.884 124.469 213.885 125.553C213.751 125.698 213.65 125.87 213.588 126.058C213.526 126.246 213.505 126.445 213.527 126.642C213.548 126.839 213.612 127.028 213.713 127.198C213.814 127.368 213.95 127.515 214.113 127.628C215.018 128.256 215.762 129.089 216.285 130.058C216.847 131.112 217.127 132.294 217.097 133.488C217.067 134.683 216.729 135.849 216.114 136.873C215.5 137.898 214.631 138.746 213.591 139.335C212.552 139.924 211.378 140.234 210.183 140.234H197.64L197.427 139.949C196.654 138.911 196.28 137.629 196.371 136.338C196.463 135.046 197.015 133.831 197.927 132.912L195.97 130.955C194.785 132.152 193.997 133.684 193.713 135.344C193.429 137.004 193.663 138.712 194.384 140.234H189.433C187.598 140.234 185.839 139.505 184.542 138.208C183.245 136.911 182.516 135.152 182.516 133.317C182.516 131.483 183.245 129.724 184.542 128.426C185.839 127.129 187.598 126.401 189.433 126.401H200.623C200.819 127.517 201.26 128.576 201.914 129.501C202.568 130.427 203.42 131.195 204.408 131.752L205.78 129.35C205.016 128.913 204.381 128.283 203.94 127.522C203.498 126.761 203.266 125.897 203.266 125.017C203.266 124.138 203.498 123.274 203.94 122.513C204.381 121.752 205.016 121.121 205.78 120.685L204.408 118.283C203.42 118.839 202.568 119.608 201.914 120.533C201.26 121.458 200.819 122.517 200.623 123.634H190.724C190.504 121.963 189.876 120.371 188.896 119C187.915 117.629 186.613 116.521 185.102 115.772L184.518 115.48L183.281 117.954L183.865 118.247C184.931 118.776 185.857 119.55 186.565 120.507C187.274 121.464 187.745 122.575 187.94 123.749C186.165 124.025 184.501 124.79 183.136 125.958C181.771 127.126 180.757 128.651 180.21 130.362C179.662 132.073 179.602 133.903 180.035 135.647C180.469 137.39 181.38 138.979 182.665 140.234H168.683C167.208 140.234 165.772 139.763 164.585 138.889C163.397 138.015 162.52 136.785 162.081 135.377C161.642 133.969 161.664 132.458 162.145 131.064C162.625 129.67 163.539 128.466 164.752 127.628C164.915 127.516 165.051 127.369 165.152 127.199C165.254 127.029 165.317 126.84 165.339 126.643C165.36 126.446 165.34 126.247 165.278 126.059C165.216 125.871 165.115 125.699 164.98 125.553C164.221 124.73 163.674 123.735 163.384 122.654C163.095 121.572 163.072 120.437 163.319 119.344C163.565 118.252 164.073 117.236 164.798 116.384C165.524 115.531 166.446 114.867 167.484 114.45C167.812 116.098 168.563 117.632 169.662 118.903C170.761 120.174 172.171 121.138 173.755 121.7L174.677 119.092C173.344 118.618 172.188 117.748 171.364 116.598C170.54 115.448 170.087 114.074 170.068 112.659C170.068 112.647 170.068 112.635 170.068 112.623C170.068 112.606 170.066 112.587 170.066 112.569C170.068 110.735 170.797 108.977 172.094 107.68C173.391 106.383 175.149 105.654 176.982 105.652C177.944 105.65 178.896 105.851 179.775 106.241L179.896 106.582C180.199 107.439 180.254 108.363 180.055 109.249C179.856 110.135 179.411 110.947 178.77 111.59L180.727 113.547C181.737 112.532 182.439 111.252 182.753 109.855C183.068 108.458 182.981 107 182.503 105.65L182.408 105.385C183.21 104.117 184.338 103.088 185.673 102.404C186.148 103.756 187.031 104.927 188.2 105.756C189.369 106.586 190.766 107.032 192.2 107.034H208.588L207.429 115.138C207.392 115.4 207.431 115.667 207.54 115.908C207.65 116.149 207.827 116.353 208.049 116.496C208.271 116.64 208.53 116.716 208.795 116.717C209.059 116.718 209.318 116.643 209.542 116.501L224.419 107.034H235.083C236.917 107.032 238.675 106.302 239.972 105.006C241.269 103.709 241.998 101.951 242 100.117V66.9167C241.998 65.0829 241.269 63.3248 239.972 62.0281C238.675 60.7314 236.917 60.0021 235.083 60ZM239.233 100.117C239.232 101.217 238.794 102.272 238.016 103.05C237.238 103.828 236.184 104.266 235.083 104.267H224.017C223.753 104.267 223.495 104.342 223.273 104.483L210.595 112.552L211.553 105.846C211.581 105.65 211.566 105.45 211.51 105.26C211.454 105.07 211.358 104.894 211.228 104.744C211.098 104.594 210.938 104.474 210.757 104.392C210.577 104.31 210.381 104.267 210.183 104.267H192.2C191.099 104.266 190.044 103.828 189.266 103.05C188.488 102.272 188.051 101.217 188.05 100.117V66.9167C188.051 65.8165 188.488 64.7616 189.266 63.9836C190.044 63.2056 191.099 62.768 192.2 62.7667H235.083C236.184 62.768 237.238 63.2056 238.016 63.9836C238.794 64.7616 239.232 65.8165 239.233 66.9167V100.117Z" fill="#412A7C"/>
<path d="M232.317 68.3001H201.883V65.5334H199.116V101.5H201.883V98.7337H224.016C224.383 98.7337 224.735 98.588 224.995 98.3286C225.254 98.0691 225.4 97.7173 225.4 97.3504V91.817C225.4 91.4501 225.254 91.0983 224.995 90.8388C224.735 90.5794 224.383 90.4337 224.016 90.4337H201.883V87.667H217.1C217.467 87.667 217.818 87.5212 218.078 87.2618C218.337 87.0024 218.483 86.6505 218.483 86.2836V80.7502C218.483 80.3834 218.337 80.0315 218.078 79.7721C217.818 79.5126 217.467 79.3669 217.1 79.3669H201.883V76.6002H232.317C232.683 76.6002 233.035 76.4545 233.295 76.195C233.554 75.9356 233.7 75.5838 233.7 75.2169V69.6835C233.7 69.3166 233.554 68.9647 233.295 68.7053C233.035 68.4459 232.683 68.3001 232.317 68.3001ZM222.633 93.2004V95.9671H201.883V93.2004H222.633ZM215.716 82.1336V84.9003H201.883V82.1336H215.716ZM230.933 73.8335H201.883V71.0668H230.933V73.8335Z" fill="#412A7C"/>
<path d="M190.816 68.3H196.35V71.0667H190.816V68.3Z" fill="#412A7C"/>
<path d="M190.816 73.8335H196.35V76.6002H190.816V73.8335Z" fill="#412A7C"/>
<path d="M190.816 79.3669H196.35V82.1336H190.816V79.3669Z" fill="#412A7C"/>
<path d="M190.816 84.9001H196.35V87.6668H190.816V84.9001Z" fill="#412A7C"/>
<path d="M190.816 90.4336H196.35V93.2003H190.816V90.4336Z" fill="#412A7C"/>
<path d="M190.816 95.967H196.35V98.7337H190.816V95.967Z" fill="#412A7C"/>
</g>
<defs>
<clipPath id="clip0">
<rect width="296" height="296" fill="white"/>
</clipPath>
</defs>
</svg>
