<svg width="247" height="247" viewBox="0 0 247 247" fill="none" xmlns="http://www.w3.org/2000/svg">
<path d="M4 83.5H63V24L41.5 29L12.5 51L4 83.5Z" fill="#FFC700"/>
<circle cx="88" cy="214" r="7" fill="#FFC700"/>
<circle cx="127" cy="176" r="7" fill="#FFC700"/>
<circle cx="164" cy="214" r="7" fill="#FFC700"/>
<circle cx="211" cy="167" r="7" fill="#FFC700"/>
<path d="M201 47.5L200 10.5L238 45.5L201 47.5Z" fill="#FFC700"/>
<path d="M82.5 95V43C95.3 38.2 113.167 50.6667 120.5 57.5L82.5 95Z" fill="#FF9900"/>
<path d="M245.587 45.3071L201.686 1.41301C200.782 0.508473 199.555 0 198.275 0H54.9961C47.0159 0 40.5234 6.49243 40.5234 14.4727V23.6695C16.8245 32.9658 0 56.0647 0 83.0205C0 85.6844 2.16029 87.8447 4.82422 87.8447H63.7236C66.3875 87.8447 68.5478 85.6844 68.5478 83.0205V24.1211C68.5478 21.4572 66.3875 19.2969 63.7236 19.2969C59.074 19.2969 54.5412 19.802 50.1719 20.7523V14.4727C50.1719 11.8126 52.336 9.64844 54.9961 9.64844H193.451V39.0762C193.451 47.0564 199.944 53.5488 207.924 53.5488H237.352V232.527C237.352 235.187 235.187 237.352 232.527 237.352H54.9961C52.336 237.352 50.1719 235.187 50.1719 232.527V191.2C50.1719 188.536 48.0116 186.375 45.3477 186.375C42.6837 186.375 40.5234 188.536 40.5234 191.2V232.527C40.5234 240.508 47.0159 247 54.9961 247H232.527C240.508 247 247 240.508 247 232.527V48.7183C247 47.439 246.492 46.2117 245.587 45.3071ZM58.8989 29.159V78.1962H9.86167C12.1681 52.2188 32.9219 31.4655 58.8989 29.159ZM207.924 43.9004C205.264 43.9004 203.1 41.7362 203.1 39.0762V16.4699L230.534 43.9004H207.924Z" fill="#412A7C"/>
<path d="M48.7579 170.261C47.8611 169.363 46.6164 168.848 45.3477 168.848C44.0789 168.848 42.8342 169.363 41.9369 170.261C41.0396 171.158 40.5234 172.403 40.5234 173.672C40.5234 174.941 41.0391 176.185 41.9369 177.082C42.8342 177.98 44.0789 178.496 45.3477 178.496C46.6164 178.496 47.8611 177.98 48.7579 177.082C49.6557 176.185 50.1719 174.941 50.1719 173.672C50.1719 172.403 49.6557 171.158 48.7579 170.261Z" fill="#412A7C"/>
<path d="M81.0031 36.5767C78.3392 36.5767 76.1789 38.7369 76.1789 41.4009V95.4755H22.1042C19.4403 95.4755 17.28 97.6358 17.28 100.3C17.28 135.437 45.8659 164.023 81.0031 164.023C116.14 164.023 144.727 135.437 144.727 100.3C144.727 65.1626 116.14 36.5767 81.0031 36.5767ZM85.8274 46.4388C97.1208 47.4413 107.426 51.9326 115.658 58.8226L85.8274 88.6531V46.4388ZM81.0031 154.375C52.8118 154.375 29.5895 132.691 27.1422 105.124H81.0031C82.3346 105.124 83.5397 104.585 84.4129 103.712C84.4134 103.712 84.4139 103.712 84.4148 103.711L122.482 65.644C130.341 75.0353 135.078 87.1248 135.078 100.3C135.078 130.117 110.82 154.375 81.0031 154.375Z" fill="#412A7C"/>
<path d="M211.336 152.255C203.356 152.255 196.863 158.747 196.863 166.727C196.863 168.727 197.271 170.633 198.008 172.368L170.214 200.162C168.304 199.231 166.16 198.708 163.897 198.708C161.687 198.708 159.592 199.207 157.717 200.096L139.261 181.64C139.9 180.007 140.255 178.233 140.255 176.375C140.255 168.395 133.763 161.903 125.783 161.903C117.803 161.903 111.31 168.395 111.31 176.375C111.31 178.537 111.79 180.589 112.644 182.433L94.9415 200.135C93.0557 199.233 90.9456 198.727 88.7197 198.727C80.7395 198.727 74.2471 205.22 74.2471 213.2C74.2471 221.18 80.7395 227.673 88.7197 227.673C96.6999 227.673 103.192 221.18 103.192 213.2C103.192 210.963 102.682 208.843 101.772 206.951L119.376 189.347C121.309 190.306 123.484 190.848 125.784 190.848C128.382 190.848 130.819 190.157 132.929 188.953L150.865 206.889C149.942 208.793 149.424 210.927 149.424 213.18C149.424 221.16 155.917 227.653 163.897 227.653C171.877 227.653 178.37 221.16 178.37 213.18C178.37 210.981 177.875 208.896 176.993 207.028L204.527 179.494C206.558 180.581 208.876 181.2 211.336 181.2C219.316 181.2 225.809 174.708 225.809 166.727C225.809 158.747 219.316 152.255 211.336 152.255ZM88.7192 218.025C86.0592 218.025 83.895 215.861 83.895 213.2C83.895 210.54 86.0592 208.376 88.7192 208.376C90.0146 208.376 91.1892 208.892 92.0566 209.726C92.0759 209.746 92.0928 209.768 92.1126 209.787C92.1358 209.81 92.1608 209.83 92.1845 209.852C93.0239 210.72 93.5435 211.9 93.5435 213.2C93.5435 215.86 91.3793 218.025 88.7192 218.025ZM125.783 181.199C123.123 181.199 120.959 179.035 120.959 176.375C120.959 173.715 123.123 171.551 125.783 171.551C128.443 171.551 130.607 173.715 130.607 176.375C130.607 179.035 128.443 181.199 125.783 181.199ZM163.896 218.004C161.236 218.004 159.072 215.84 159.072 213.18C159.072 210.52 161.236 208.356 163.896 208.356C166.556 208.356 168.72 210.52 168.72 213.18C168.72 215.84 166.556 218.004 163.896 218.004ZM211.335 171.551C208.675 171.551 206.511 169.387 206.511 166.727C206.511 164.067 208.675 161.903 211.335 161.903C213.995 161.903 216.159 164.067 216.159 166.727C216.159 169.387 213.995 171.551 211.335 171.551Z" fill="#412A7C"/>
<path d="M187.223 113.369H161.761C159.098 113.369 156.937 115.529 156.937 118.193C156.937 120.857 159.097 123.018 161.761 123.018H187.223C189.887 123.018 192.047 120.857 192.047 118.193C192.047 115.529 189.887 113.369 187.223 113.369Z" fill="#412A7C"/>
<path d="M212.598 114.783C211.701 113.885 210.457 113.369 209.188 113.369C207.919 113.369 206.674 113.885 205.777 114.783C204.88 115.68 204.364 116.925 204.364 118.193C204.364 119.462 204.879 120.707 205.777 121.604C206.674 122.501 207.914 123.018 209.188 123.018C210.457 123.018 211.701 122.501 212.598 121.604C213.495 120.707 214.012 119.462 214.012 118.193C214.012 116.925 213.496 115.68 212.598 114.783Z" fill="#412A7C"/>
<path d="M220.691 67.0566H161.761C159.098 67.0566 156.937 69.2169 156.937 71.8809C156.937 74.5448 159.097 76.7051 161.761 76.7051H220.691C223.355 76.7051 225.515 74.5448 225.515 71.8809C225.515 69.2169 223.355 67.0566 220.691 67.0566Z" fill="#412A7C"/>
<path d="M220.691 90.2129H161.761C159.098 90.2129 156.937 92.3732 156.937 95.0371C156.937 97.701 159.097 99.8613 161.761 99.8613H220.691C223.355 99.8613 225.515 97.701 225.515 95.0371C225.515 92.3732 223.355 90.2129 220.691 90.2129Z" fill="#412A7C"/>
</svg>
