<svg width="289" height="289" viewBox="0 0 289 289" fill="none" xmlns="http://www.w3.org/2000/svg">
<path d="M283.153 258.028L229.632 204.503C231.479 201 230.973 196.568 228.031 193.621L220.671 186.266H255.875C263.551 186.266 269.797 180.019 269.797 172.344V14.5625C269.797 6.88691 263.551 0.640625 255.875 0.640625H14.5625C6.88691 0.640625 0.640625 6.88691 0.640625 14.5625V172.344C0.640625 180.019 6.88691 186.266 14.5625 186.266H77.6982C91.6618 208.517 116.35 223.391 144.505 223.391C157.401 223.391 169.545 220.221 180.302 214.713L193.621 228.031C195.431 229.841 197.807 230.746 200.188 230.746C201.682 230.746 203.158 230.347 204.508 229.632L258.028 283.157C261.383 286.512 265.848 288.359 270.595 288.359C280.391 288.359 288.359 280.391 288.359 270.595C288.359 265.917 286.461 261.337 283.153 258.028ZM14.5625 176.984C12.0055 176.984 9.92188 174.901 9.92188 172.344V14.5625C9.92188 12.0055 12.0055 9.92188 14.5625 9.92188H255.875C258.432 9.92188 260.516 12.0055 260.516 14.5625V172.344C260.516 174.901 258.432 176.984 255.875 176.984H216.309C218.963 171.137 220.922 164.919 222.082 158.422H237.312C239.879 158.422 241.953 156.348 241.953 153.781V135.219C241.953 132.652 239.879 130.578 237.312 130.578H222.087C215.478 93.7037 183.24 65.6094 144.5 65.6094C132.912 65.6094 121.933 68.1849 112.016 72.691V51.6875C112.016 49.1212 109.941 47.0469 107.375 47.0469H88.8125C86.2462 47.0469 84.1719 49.1212 84.1719 51.6875V93.7687C75.4568 104.113 69.3961 116.726 66.9134 130.578H65.6094V23.8438C65.6094 21.2775 63.535 19.2031 60.9688 19.2031H42.4062C39.84 19.2031 37.7656 21.2775 37.7656 23.8438V130.578H33.125C30.5587 130.578 28.4844 132.652 28.4844 135.219V153.781C28.4844 156.348 30.5587 158.422 33.125 158.422H66.9134C68.0782 164.923 70.0319 171.137 72.691 176.984H14.5625ZM223.154 139.859H232.672V149.141H223.154C223.242 147.591 223.391 146.064 223.391 144.5C223.391 142.931 223.242 141.4 223.154 139.859ZM102.734 77.6936C99.4813 79.7354 96.3674 81.9769 93.4531 84.455V56.3281H102.734V77.6936ZM65.846 149.136H37.7656V139.855H65.846C65.7532 141.4 65.6094 142.931 65.6094 144.5C65.6094 146.064 65.7532 147.591 65.846 149.136ZM56.3281 130.578H47.0469V28.4844H56.3281V130.578ZM74.8906 144.5C74.8906 106.117 106.117 74.8906 144.5 74.8906C182.883 74.8906 214.109 106.117 214.109 144.5C214.109 182.883 182.883 214.109 144.5 214.109C106.117 214.105 74.8906 182.883 74.8906 144.5ZM188.6 209.877C196.976 204.211 204.211 196.976 209.877 188.6L221.465 200.188L200.188 221.465L188.6 209.877ZM270.59 279.073C268.354 279.073 266.168 278.169 264.59 276.591L211.39 223.386L223.391 211.39L276.591 264.595C278.173 266.173 279.078 268.358 279.078 270.59C279.078 275.268 275.273 279.073 270.59 279.073Z" fill="#412A7C"/>
</svg>
